<svg version="1.1" id="Calque_1" xmlns="http://www.w3.org/2000/svg" xmlns:xlink="http://www.w3.org/1999/xlink" x="0px" y="0px"
	 width="680px" height="680px" viewBox="0 0 680 680" style="enable-background:new 0 0 680 680;" xml:space="preserve">
<style type="text/css">
<![CDATA[
	.st0{fill:#31AAD2;}
]]>
</style>
<g id="icn-dt">
	<path class="st0" d="M101.51,357.09l252.93-252.92c3.99,0.26,7.95,0.62,11.88,1.08L102.58,368.97
		C102.12,365.04,101.77,361.08,101.51,357.09z"/>
	<path class="st0" d="M108.86,280.42l168.9-168.9c3.74-0.99,7.52-1.89,11.33-2.7L106.17,291.75
		C106.97,287.94,107.88,284.17,108.86,280.42z"/>
	<g>
		<path class="st0" d="M247.45,560.88l310.77-310.76c3.01,7.24,5.67,14.67,7.97,22.25L269.7,568.85
			C262.12,566.56,254.69,563.9,247.45,560.88z"/>
		<path class="st0" d="M467.96,341.33c0,21.16-5.08,41.13-14.09,58.76l-56.44,56.44c-17.63,9.01-37.6,14.09-58.76,14.09
			c-5.04,0-10.01-0.3-14.91-0.86L467.1,326.43C467.66,331.32,467.96,336.29,467.96,341.33z"/>
	</g>
	<g>
		<path class="st0" d="M135.55,464.85l326.64-326.63c3.56,2.17,7.05,4.44,10.48,6.78L142.33,475.34
			C139.98,471.9,137.72,468.41,135.55,464.85z"/>
		<path class="st0" d="M214.4,377.13l160.07-160.07c8.6,2.47,16.83,5.82,24.6,9.93L224.33,401.73
			C220.22,393.97,216.87,385.74,214.4,377.13z"/>
	</g>
	<g>
		<path class="st0" d="M113.23,416.85L414.19,115.9c3.21,1.07,6.38,2.22,9.52,3.43L116.65,426.37
			C115.45,423.23,114.3,420.06,113.23,416.85z"/>
		<path class="st0" d="M213.11,310.39l94.61-94.61c9.5-2.33,19.42-3.62,29.62-3.72L209.39,340.01
			C209.49,329.81,210.78,319.89,213.11,310.39z"/>
	</g>
	<g>
		<path class="st0" d="M165.29,503.91l335.96-335.95c3.71,3.48,7.31,7.08,10.79,10.79L176.08,514.71
			C172.37,511.22,168.77,507.63,165.29,503.91z"/>
		<path class="st0" d="M237.79,420.63l180.88-180.87c8.02,6.32,15.26,13.57,21.58,21.58L259.37,442.21L237.79,420.63z"/>
	</g>
	<g>
		<path class="st0" d="M202.71,536.31l330.94-330.93c3.57,5.12,6.95,10.38,10.12,15.78L218.49,546.44
			C213.09,543.27,207.82,539.89,202.71,536.31z"/>
		<path class="st0" d="M464.77,312.71L310.04,467.44c-13.24-2.99-25.71-8.02-37.07-14.73l177.06-177.07
			C456.75,287,461.78,299.47,464.77,312.71z"/>
	</g>
	<path class="st0" d="M301.96,576.21l271.58-271.57c1.61,10.38,2.54,20.99,2.76,31.77L333.73,578.97
		C322.95,578.75,312.34,577.81,301.96,576.21z"/>
	<path class="st0" d="M371.19,576.8l202.95-202.94c-2.48,18.12-7,35.59-13.33,52.18L423.36,563.48
		C406.78,569.8,389.31,574.33,371.19,576.8z"/>
</g>
</svg>
