<?xml version="1.0" encoding="utf-8"?>
<!-- Generator: Adobe Illustrator 16.0.0, SVG Export Plug-In . SVG Version: 6.00 Build 0)  -->
<!DOCTYPE svg PUBLIC "-//W3C//DTD SVG 1.1//EN" "http://www.w3.org/Graphics/SVG/1.1/DTD/svg11.dtd">
<svg version="1.1" id="Calque_1" xmlns="http://www.w3.org/2000/svg" xmlns:xlink="http://www.w3.org/1999/xlink" x="0px" y="0px"
	 width="55px" height="55px" viewBox="0 0 55 55" style="enable-background:new 0 0 55 55;" xml:space="preserve">
<style type="text/css">
<![CDATA[
	.st0{fill:#80CC28;}
	.st1{fill:url(#SVGID_1_);}
	.st2{fill:#FFFFFE;}
	.st3{fill:#FFFFFF;}
	.st4{fill:#676C70;}
	.st5{fill:#45BFDC;}
]]>
</style>
<g>
	
		<radialGradient id="SVGID_1_" cx="448.7168" cy="32.8955" r="52.6016" gradientTransform="matrix(0.6 0 0 0.6 -236.0435 1.4265)" gradientUnits="userSpaceOnUse">
		<stop  offset="0" style="stop-color:#425F84"/>
		<stop  offset="1" style="stop-color:#002343"/>
	</radialGradient>
	<path class="st1" d="M26.44,2.04C25.99,2.02,25.54,2,25.1,2C18.91,1.99,13.3,4.63,8.42,9.85C3.98,14.6,2.49,18.42,2.5,23.03
		c0.01,2.47,0.45,5.16,1.09,8.35c1.22,5.99,4.77,11.77,9.75,15.86c3.81,3.13,8.06,4.73,12.54,4.76c2.32,0.02,4.71-0.39,7.12-1.22
		c7.8-2.69,15.26-10.4,18.14-18.74c0.91-2.64,1.36-5.21,1.35-7.66c-0.02-5.98-2.75-11.21-7.97-14.96
		C38.2,4.88,32.12,2.39,26.44,2.04z"/>
	<path class="st3" d="M18.17,25.75h-1.71l0,0.05c-0.01,0.33-0.21,3.25-2.82,3.25c-2.33,0-3.52-2.09-3.52-6.21
		c0-4.12,1.19-6.21,3.52-6.21c2.66,0,2.82,3.12,2.82,3.25l0,0.05h1.71c0.16,0,0.31-0.06,0.42-0.18c0.11-0.11,0.16-0.25,0.15-0.39
		c-0.04-0.81-0.45-4.85-5.14-4.85c-3.79,0-5.79,2.88-5.79,8.33c0,5.46,2,8.34,5.79,8.34c4.51,0,5.07-3.69,5.14-4.82
		c0.01-0.16-0.04-0.3-0.15-0.42C18.49,25.82,18.33,25.75,18.17,25.75z"/>
	<path class="st5" d="M43.05,21.85L43.05,21.85l-1.48-0.64c-1.42-0.62-1.92-1.23-1.92-2.32c0-1.42,1.04-2.38,2.59-2.38
		c0.92,0,1.67,0.19,2.58,1.12l0.05,0.05l0.79-0.72c0.46-0.42,0.32-0.81,0.13-1.05c-0.77-0.91-2-1.41-3.48-1.41
		c-2.84,0-4.91,1.85-4.91,4.41c0,2.51,1.58,3.56,3.29,4.32l1.51,0.67c1.51,0.68,2.24,1.26,2.24,2.72c0,1.99-1.8,2.52-2.86,2.52
		c-0.91,0-1.93-0.2-3.18-1.61l-0.05-0.06l-0.82,0.72c-0.42,0.37-0.43,0.69-0.01,1.22c1.13,1.45,2.79,1.76,3.98,1.76
		c2.58,0,5.19-1.58,5.19-4.61C46.69,23.95,45.24,22.79,43.05,21.85z"/>
	<path class="st5" d="M29.67,19.27c0-2.57-2.08-4.75-4.66-4.75c-1.21,0-2.31,0.46-3.14,1.22v-0.88h-1.55c-0.47,0-0.65,0.3-0.65,0.66
		v15.02c0,0.42,0.26,0.65,0.64,0.65h1.55c0,0,0-11.81,0-11.81c0-1.55,1.26-2.81,2.81-2.81c1.55,0,2.81,1.26,2.81,2.81
		c0,0,0,11.81,0,11.81h1.54c0.43,0,0.65-0.24,0.65-0.65C29.67,30.53,29.67,19.29,29.67,19.27z"/>
	<path class="st3" d="M37.67,15.64c0.08-0.1,0.13-0.23,0.13-0.37c0-0.26-0.17-0.48-0.4-0.55c-0.45-0.15-0.93-0.23-1.42-0.23
		c-1.21,0-2.31,0.46-3.14,1.22v-0.88h-1.55c-0.47,0-0.65,0.3-0.65,0.66V30.5c0,0.42,0.26,0.65,0.64,0.65h1.55c0,0,0-11.81,0-11.81
		c0-1.55,1.26-2.81,2.81-2.81c0.41,0,0.79,0.09,1.14,0.24L37.67,15.64L37.67,15.64z"/>
	<path class="st3" d="M25.09,47.42c0,0.23-0.19,0.42-0.42,0.42l0,0c-0.23,0-0.42-0.19-0.42-0.42V19.08c0-0.23,0.19-0.42,0.42-0.42
		l0,0c0.23,0,0.42,0.19,0.42,0.42V47.42z"/>
</g>
</svg>
