<?xml version="1.0" encoding="utf-8"?>
<!-- Generator: Adobe Illustrator 16.0.0, SVG Export Plug-In . SVG Version: 6.00 Build 0)  -->
<!DOCTYPE svg PUBLIC "-//W3C//DTD SVG 1.1//EN" "http://www.w3.org/Graphics/SVG/1.1/DTD/svg11.dtd">
<svg version="1.1" id="Calque_1" xmlns="http://www.w3.org/2000/svg" xmlns:xlink="http://www.w3.org/1999/xlink" x="0px" y="0px"
	 width="55px" height="55px" viewBox="0 0 55 55" style="enable-background:new 0 0 55 55;" xml:space="preserve">
<style type="text/css">
<![CDATA[
	.st0{fill:#80CC28;}
	.st1{fill:url(#SVGID_1_);}
	.st2{fill:#FFFFFE;}
	.st3{fill:#FFFFFF;}
	.st4{fill:#676C70;}
	.st5{fill:#45BFDC;}
]]>
</style>
<g id="g16917" transform="matrix(9.4565629,0,0,-9.469235,-4773.2039,902.41146)">
	<g id="g16910">
		<path id="path11666"   class="st4" d="M505.27,92.94h0.41v2.11h-0.41V92.94z"/>
		<path id="path11670"   class="st4" d="M509.69,95.05v-1.26c-0.07,0.08-1.2,1.33-1.2,1.33h-0.06
			v-2.18h0.38v1.25c0.07-0.08,1.2-1.32,1.2-1.32h0.07v2.18H509.69L509.69,95.05z"/>
		<g id="g16906">
			<path id="path11674"   class="st4" d="M507.56,93.55l-0.02,0v-0.22
				c-0.14-0.05-0.24-0.07-0.37-0.07c-0.45,0-0.74,0.3-0.74,0.77c0,0.44,0.27,0.72,0.72,0.72c0.25,0,0.46-0.09,0.61-0.27l0.03-0.04
				l0.03,0.48l-0.01,0.01c-0.07,0.05-0.1,0.06-0.18,0.1c-0.17,0.07-0.31,0.1-0.48,0.1c-0.32,0-0.61-0.11-0.82-0.31
				c-0.21-0.2-0.32-0.49-0.32-0.81c0-0.66,0.47-1.13,1.11-1.13c0.16,0,0.34,0.03,0.5,0.08c0.11,0.03,0.17,0.06,0.31,0.13l0.01,0.01
				v0.53l-0.03-0.01C507.8,93.56,507.68,93.54,507.56,93.55"/>
			<path id="path11678"   class="st0" d="M507.48,94.22C507.47,94.22,507.47,94.22,507.48,94.22
				c-0.27,0.07-0.53,0.03-0.73-0.1c0.11-0.21,0.32-0.37,0.59-0.44c0,0,0,0,0,0c0.26-0.07,0.53-0.03,0.73,0.1
				C507.95,93.99,507.74,94.16,507.48,94.22"/>
		</g>
	</g>
	<g id="g16849">
		<path id="path11464"   class="st4" d="M505.69,92.07c0-0.01,0-0.02-0.01-0.03
			c-0.01-0.01-0.02-0.01-0.03-0.01c-0.01,0-0.02,0-0.03,0.01c0,0-0.01,0.01-0.02,0.03l-0.13,0.22v-0.25h-0.05v0.27
			c0,0.03,0.02,0.05,0.05,0.05c0.01,0,0.02,0,0.03-0.01c0,0,0.01-0.01,0.02-0.03l0.13-0.22v0.25h0.05V92.07L505.69,92.07z"/>
		<path id="path11468"   class="st4" d="M506.02,92.3h-0.14c-0.02,0-0.04,0-0.04-0.01
			c0-0.01-0.01-0.02-0.01-0.04c0-0.01,0-0.02,0.01-0.03c0.01,0,0.02-0.01,0.04-0.01h0.06c0.03,0,0.05-0.01,0.06-0.02
			c0.02-0.01,0.02-0.03,0.02-0.05V92.1c0-0.02-0.01-0.04-0.02-0.05c-0.02-0.01-0.04-0.02-0.06-0.02h-0.16v0.05h0.14
			c0.02,0,0.04,0.01,0.04,0.02c0,0.01,0,0.02,0,0.04c0,0.02-0.02,0.03-0.05,0.03h-0.06c-0.02,0-0.04,0.01-0.06,0.02
			c-0.02,0.01-0.03,0.03-0.03,0.05v0.05c0,0.02,0.01,0.04,0.03,0.05c0.01,0.01,0.03,0.01,0.06,0.01h0.16V92.3z"/>
		<path id="path11472"   class="st4" d="M506.33,92.3h-0.1v-0.27h-0.06v0.27h-0.1v0.05h0.25V92.3
			L506.33,92.3z"/>
		<path id="path11474"   class="st4" d="M506.45,92.03h-0.06v0.31h0.06V92.03z"/>
		<path id="path11478"   class="st4" d="M506.76,92.3h-0.1v-0.27h-0.06v0.27h-0.1v0.05h0.25V92.3
			L506.76,92.3z"/>
		<path id="path11482"   class="st4" d="M507.09,92.11c0-0.01,0-0.03,0-0.03
			c0-0.01-0.01-0.02-0.02-0.03c-0.01-0.01-0.02-0.01-0.03-0.02c-0.01,0-0.02,0-0.04,0h-0.09c-0.02,0-0.03,0-0.04,0
			c-0.01,0-0.02,0.01-0.03,0.02c-0.01,0.01-0.02,0.02-0.02,0.03c0,0.01,0,0.02,0,0.03v0.23h0.06v-0.23c0-0.02,0-0.03,0.01-0.03
			c0.01-0.01,0.02-0.01,0.04-0.01h0.06c0.02,0,0.03,0,0.04,0.01c0.01,0.01,0.01,0.02,0.01,0.03v0.23h0.06V92.11L507.09,92.11z"/>
		<path id="path11486"   class="st4" d="M507.4,92.3h-0.1v-0.27h-0.06v0.27h-0.1v0.05h0.25V92.3
			L507.4,92.3z"/>
		<path id="path11490"   class="st4" d="M507.88,92.07c0-0.01,0-0.02-0.01-0.03
			c-0.01-0.01-0.02-0.01-0.03-0.01c-0.01,0-0.02,0-0.03,0.01c0,0-0.01,0.01-0.02,0.03l-0.13,0.22v-0.25h-0.05v0.27
			c0,0.03,0.02,0.05,0.05,0.05c0.01,0,0.02,0,0.03-0.01c0,0,0.01-0.01,0.02-0.03l0.13-0.22v0.25h0.05V92.07L507.88,92.07z"/>
		<path id="path11494"   class="st4" d="M508.16,92.15l-0.06,0.14l-0.06-0.14H508.16z M508.27,92.03
			h-0.06l-0.03,0.08h-0.15l-0.03-0.08h-0.06l0.13,0.29c0.01,0.02,0.02,0.03,0.04,0.03c0.02,0,0.04-0.01,0.04-0.03L508.27,92.03
			L508.27,92.03z"/>
		<path id="path11498"   class="st4" d="M508.52,92.3h-0.1v-0.27h-0.06v0.27h-0.1v0.05h0.25V92.3
			L508.52,92.3z"/>
		<path id="path11500"   class="st4" d="M508.64,92.03h-0.06v0.31h0.06V92.03z"/>
		<path id="path11504"   class="st4" d="M508.94,92.12v0.15c0,0.01,0,0.02-0.01,0.03
			c-0.01,0.01-0.02,0.01-0.04,0.01h-0.06c-0.02,0-0.03,0-0.04-0.01c-0.01-0.01-0.01-0.02-0.01-0.03v-0.14c0-0.01,0-0.02,0.01-0.03
			c0.01-0.01,0.02-0.01,0.04-0.01h0.06c0.02,0,0.03,0,0.04,0.01C508.94,92.09,508.94,92.1,508.94,92.12 M509,92.1
			c0-0.05-0.03-0.07-0.09-0.07h-0.08c-0.03,0-0.05,0.01-0.07,0.02c-0.02,0.01-0.03,0.03-0.03,0.05v0.17c0,0.02,0.01,0.04,0.03,0.06
			c0.01,0.01,0.04,0.02,0.07,0.02h0.09c0.06,0,0.09-0.02,0.09-0.07V92.1L509,92.1z"/>
		<path id="path11508"   class="st4" d="M509.36,92.07c0-0.01,0-0.02-0.01-0.03
			c-0.01-0.01-0.02-0.01-0.03-0.01c-0.01,0-0.02,0-0.03,0.01c0,0-0.01,0.01-0.02,0.03l-0.13,0.22v-0.25h-0.05v0.27
			c0,0.03,0.02,0.05,0.05,0.05c0.01,0,0.02,0,0.03-0.01c0,0,0.01-0.01,0.02-0.03l0.13-0.22v0.25h0.05V92.07L509.36,92.07z"/>
		<path id="path11512"   class="st4" d="M509.65,92.15l-0.06,0.14l-0.06-0.14H509.65L509.65,92.15z
			 M509.76,92.03h-0.06l-0.03,0.08h-0.15l-0.03-0.08h-0.06l0.13,0.29c0.01,0.02,0.02,0.03,0.04,0.03c0.02,0,0.04-0.01,0.04-0.03
			L509.76,92.03L509.76,92.03z"/>
		<path id="path11516"   class="st4" d="M510.06,92.03h-0.15c-0.03,0-0.06,0.01-0.08,0.02
			c-0.02,0.01-0.03,0.03-0.03,0.06v0.24h0.06v-0.23c0-0.02,0-0.03,0.01-0.03c0.01,0,0.02-0.01,0.04-0.01h0.14V92.03z"/>
		<path id="path11520"   class="st4" d="M505.5,91.39v0.14c0,0.03-0.02,0.04-0.05,0.04h-0.12v-0.22
			h0.12C505.48,91.35,505.5,91.36,505.5,91.39 M505.55,91.37c0-0.02-0.01-0.04-0.02-0.05c-0.01-0.01-0.03-0.02-0.06-0.02h-0.2v0.31
			h0.19c0.06,0,0.08-0.02,0.08-0.07V91.37L505.55,91.37z"/>
		<path id="path11524"   class="st4" d="M505.88,91.44h-0.18v-0.05c0-0.02,0.02-0.04,0.05-0.04h0.15
			V91.3h-0.16c-0.03,0-0.05,0.01-0.06,0.02c-0.02,0.01-0.03,0.03-0.03,0.05v0.18c0,0.02,0.01,0.04,0.02,0.05
			c0.01,0.01,0.04,0.02,0.06,0.02h0.17v-0.05h-0.15c-0.03,0-0.05-0.01-0.05-0.03v-0.05h0.18V91.44L505.88,91.44z"/>
		<path id="path11528"   class="st4" d="M506.44,91.3h-0.15c-0.03,0-0.06,0.01-0.08,0.02
			c-0.02,0.01-0.03,0.03-0.03,0.06v0.24h0.06v-0.23c0-0.02,0-0.03,0.01-0.03c0.01,0,0.02-0.01,0.04-0.01h0.14V91.3z"/>
		<path id="path11532"   class="st4" d="M506.5,91.63c0-0.01,0-0.01,0-0.02l-0.02-0.06h-0.03
			l0.02,0.05c-0.01,0.01-0.02,0.02-0.02,0.03c0,0.01,0,0.02,0.01,0.02c0.01,0.01,0.01,0.01,0.02,0.01c0.01,0,0.01,0,0.02-0.01
			C506.49,91.64,506.5,91.64,506.5,91.63"/>
		<path id="path11534"   class="st4" d="M506.66,91.3h-0.06v0.31h0.06V91.3z"/>
		<path id="path11538"   class="st4" d="M507.02,91.34c0-0.01,0-0.02-0.01-0.03
			c-0.01-0.01-0.02-0.01-0.03-0.01c-0.01,0-0.02,0-0.03,0.01c0,0-0.01,0.01-0.02,0.03l-0.13,0.22V91.3h-0.05v0.27
			c0,0.03,0.02,0.05,0.05,0.05c0.01,0,0.02,0,0.03-0.01c0,0,0.01-0.01,0.02-0.03l0.13-0.22v0.25h0.05V91.34L507.02,91.34z"/>
		<path id="path11542"   class="st4" d="M507.37,91.43h-0.19V91.3h-0.06v0.25
			c0,0.02,0.01,0.04,0.03,0.05c0.01,0.01,0.03,0.01,0.06,0.01h0.16v-0.05h-0.15c-0.03,0-0.05-0.01-0.05-0.03v-0.06h0.19V91.43z"/>
		<path id="path11546"   class="st4" d="M507.68,91.38v0.15c0,0.01,0,0.02-0.01,0.03
			c-0.01,0.01-0.02,0.01-0.04,0.01h-0.06c-0.02,0-0.03,0-0.04-0.01c-0.01-0.01-0.01-0.02-0.01-0.03v-0.14c0-0.01,0-0.02,0.01-0.03
			c0.01-0.01,0.02-0.01,0.04-0.01h0.06c0.02,0,0.03,0,0.04,0.01C507.67,91.36,507.68,91.37,507.68,91.38 M507.73,91.37
			c0-0.05-0.03-0.07-0.09-0.07h-0.09c-0.03,0-0.05,0.01-0.07,0.02c-0.02,0.01-0.03,0.03-0.03,0.05v0.17c0,0.02,0.01,0.04,0.03,0.06
			c0.01,0.01,0.04,0.02,0.07,0.02h0.09c0.06,0,0.09-0.02,0.09-0.07V91.37L507.73,91.37z"/>
		<path id="path11550"   class="st4" d="M508.1,91.3h-0.07l-0.14,0.12c0,0-0.01,0.01-0.01,0.02
			c0,0.02,0.01,0.03,0.03,0.03l0.08,0c0.03,0,0.04,0.01,0.04,0.03v0.04c0,0.02-0.02,0.03-0.05,0.03h-0.12V91.3h-0.06v0.31h0.19
			c0.06,0,0.09-0.02,0.09-0.07v-0.05c0-0.02-0.01-0.04-0.02-0.05c-0.01-0.01-0.03-0.02-0.06-0.02h-0.06L508.1,91.3L508.1,91.3z"/>
		<path id="path11554"   class="st4" d="M508.57,91.3h-0.05v0.25l-0.1-0.22
			c-0.01-0.02-0.02-0.03-0.04-0.03c-0.01,0-0.02,0-0.03,0.01c0,0-0.01,0.01-0.01,0.02l-0.1,0.22V91.3h-0.05v0.27
			c0,0.01,0,0.02,0.01,0.03c0.01,0.01,0.02,0.01,0.04,0.01c0.02,0,0.04-0.01,0.05-0.03l0.1-0.22l0.1,0.22
			c0.01,0.02,0.02,0.03,0.05,0.03c0.02,0,0.03,0,0.04-0.01s0.01-0.02,0.01-0.03V91.3L508.57,91.3z"/>
		<path id="path11558"   class="st4" d="M508.86,91.42l-0.06,0.14l-0.06-0.14H508.86z M508.97,91.3
			h-0.06l-0.03,0.08h-0.15l-0.03-0.08h-0.06l0.13,0.29c0.01,0.02,0.02,0.03,0.04,0.03c0.02,0,0.04-0.01,0.04-0.03L508.97,91.3z"/>
		<path id="path11562"   class="st4" d="M509.22,91.57h-0.1V91.3h-0.06v0.27h-0.1v0.05h0.25V91.57
			L509.22,91.57z"/>
		<path id="path11564"   class="st4" d="M509.34,91.3h-0.06v0.31h0.06V91.3z"/>
		<path id="path11568"   class="st4" d="M509.64,91.38v0.15c0,0.01,0,0.02-0.01,0.03
			c-0.01,0.01-0.02,0.01-0.04,0.01h-0.06c-0.02,0-0.03,0-0.04-0.01c-0.01-0.01-0.01-0.02-0.01-0.03v-0.14c0-0.01,0-0.02,0.01-0.03
			c0.01-0.01,0.02-0.01,0.04-0.01h0.06c0.02,0,0.03,0,0.04,0.01C509.64,91.36,509.64,91.37,509.64,91.38 M509.7,91.37
			c0-0.05-0.03-0.07-0.09-0.07h-0.08c-0.03,0-0.05,0.01-0.07,0.02c-0.02,0.01-0.03,0.03-0.03,0.05v0.17c0,0.02,0.01,0.04,0.03,0.06
			c0.01,0.01,0.04,0.02,0.07,0.02h0.09c0.06,0,0.09-0.02,0.09-0.07V91.37L509.7,91.37z"/>
		<path id="path11572"   class="st4" d="M510.07,91.34c0-0.01,0-0.02-0.01-0.03
			c-0.01-0.01-0.02-0.01-0.03-0.01c-0.01,0-0.02,0-0.03,0.01c0,0-0.01,0.01-0.02,0.03l-0.13,0.22V91.3h-0.05v0.27
			c0,0.03,0.02,0.05,0.05,0.05c0.01,0,0.02,0,0.03-0.01c0,0,0.01-0.01,0.02-0.03l0.13-0.22v0.25h0.05V91.34L510.07,91.34z"/>
		<path id="path11576"   class="st4" d="M505.55,90.65c0-0.02-0.01-0.04-0.02-0.05
			c-0.02-0.01-0.04-0.02-0.06-0.02h-0.1c-0.03,0-0.05,0.01-0.07,0.02c-0.01,0.01-0.02,0.02-0.02,0.03c0,0.01,0,0.02,0,0.03v0.16
			c0,0.01,0,0.03,0,0.03c0,0.01,0.01,0.02,0.02,0.03c0.02,0.01,0.04,0.01,0.06,0.01h0.16v-0.05h-0.15c-0.02,0-0.03,0-0.04-0.01
			c-0.01-0.01-0.01-0.02-0.01-0.03v-0.15c0-0.01,0-0.02,0.01-0.03c0.01,0,0.02-0.01,0.03-0.01h0.07c0.03,0,0.04,0.01,0.04,0.04v0.09
			h0.06V90.65L505.55,90.65z"/>
		<path id="path11580"   class="st4" d="M505.89,90.97l-0.04-0.06h-0.04l0.04,0.06H505.89
			L505.89,90.97z M505.96,90.57h-0.16c-0.03,0-0.05,0.01-0.06,0.02c-0.02,0.01-0.03,0.03-0.03,0.05v0.18c0,0.02,0.01,0.04,0.02,0.05
			c0.01,0.01,0.04,0.02,0.06,0.02h0.17v-0.05h-0.15c-0.03,0-0.05-0.01-0.05-0.04v-0.05h0.19V90.7h-0.19v-0.05
			c0-0.02,0.02-0.04,0.05-0.04h0.15V90.57L505.96,90.57z"/>
		<path id="path11584"   class="st4" d="M506.33,90.65v0.15c0,0.01,0,0.02-0.01,0.03
			c-0.01,0.01-0.02,0.01-0.04,0.01h-0.06c-0.02,0-0.03,0-0.04-0.01c-0.01-0.01-0.01-0.02-0.01-0.03v-0.15c0-0.01,0-0.02,0.01-0.03
			c0.01-0.01,0.02-0.01,0.04-0.01h0.06c0.02,0,0.03,0,0.04,0.01C506.33,90.63,506.33,90.64,506.33,90.65 M506.38,90.64
			c0-0.05-0.03-0.07-0.09-0.07h-0.08c-0.03,0-0.05,0.01-0.07,0.02c-0.02,0.01-0.03,0.03-0.03,0.05v0.17c0,0.02,0.01,0.04,0.03,0.06
			c0.01,0.01,0.04,0.02,0.07,0.02h0.09c0.06,0,0.09-0.02,0.09-0.07V90.64L506.38,90.64z"/>
		<path id="path11588"   class="st4" d="M506.82,90.65c0-0.02-0.01-0.04-0.02-0.05
			c-0.02-0.01-0.04-0.02-0.06-0.02h-0.1c-0.03,0-0.05,0.01-0.07,0.02c-0.01,0.01-0.02,0.02-0.02,0.03c0,0.01,0,0.02,0,0.03v0.16
			c0,0.01,0,0.03,0,0.03c0,0.01,0.01,0.02,0.02,0.03c0.01,0.01,0.04,0.01,0.06,0.01h0.16v-0.05h-0.15c-0.02,0-0.03,0-0.04-0.01
			c-0.01-0.01-0.01-0.02-0.01-0.03v-0.15c0-0.01,0-0.02,0.01-0.03c0.01,0,0.02-0.01,0.03-0.01h0.07c0.03,0,0.04,0.01,0.04,0.04v0.09
			h0.06V90.65L506.82,90.65z"/>
		<path id="path11592"   class="st4" d="M507.26,90.57h-0.07l-0.14,0.12c0,0-0.01,0.01-0.01,0.02
			c0,0.02,0.01,0.03,0.03,0.03l0.08,0c0.03,0,0.04,0.01,0.04,0.03v0.04c0,0.02-0.02,0.03-0.05,0.03h-0.12v-0.27h-0.06v0.31h0.19
			c0.06,0,0.09-0.02,0.09-0.07v-0.05c0-0.02-0.01-0.04-0.02-0.05c-0.01-0.01-0.03-0.02-0.06-0.02h-0.06L507.26,90.57L507.26,90.57z"
			/>
		<path id="path11596"   class="st4" d="M507.61,90.69l-0.06,0.14l-0.06-0.14H507.61z M507.72,90.57
			h-0.06l-0.03,0.08h-0.15l-0.03-0.08h-0.06l0.13,0.29c0.01,0.02,0.02,0.03,0.04,0.03c0.02,0,0.04-0.01,0.04-0.03L507.72,90.57
			L507.72,90.57z"/>
		<path id="path11600"   class="st4" d="M508.07,90.77v0.04c0,0.02-0.01,0.03-0.04,0.03h-0.12v-0.1
			h0.12C508.05,90.73,508.07,90.75,508.07,90.77 M508.12,90.75c0-0.02-0.01-0.04-0.02-0.05c-0.01-0.01-0.04-0.02-0.06-0.02h-0.14
			v-0.12h-0.06v0.31h0.19c0.02,0,0.04-0.01,0.06-0.02c0.02-0.01,0.02-0.03,0.03-0.05C508.12,90.8,508.12,90.78,508.12,90.75"/>
		<path id="path11604"   class="st4" d="M508.56,90.57h-0.06v0.13h-0.17v-0.13h-0.06v0.31h0.06
			v-0.13h0.17v0.13h0.06V90.57z"/>
		<path id="path11606"   class="st4" d="M508.78,90.57h-0.06v0.31h0.06V90.57z"/>
		<path id="path11610"   class="st4" d="M509.16,90.65v0.15c0,0.01,0,0.02-0.01,0.03
			c-0.01,0.01-0.02,0.01-0.04,0.01h-0.06c-0.02,0-0.03,0-0.04-0.01C509,90.82,509,90.81,509,90.8v-0.15c0-0.01,0-0.02,0.01-0.03
			c0.01,0,0.02-0.01,0.04-0.01h0.06c0.02,0,0.03,0,0.04,0.01S509.16,90.63,509.16,90.65 M509.21,90.64c0-0.04-0.02-0.06-0.06-0.07
			l0.06-0.05h-0.08l-0.05,0.05h-0.05c-0.03,0-0.05,0-0.07,0.01c-0.02,0.01-0.03,0.03-0.03,0.06v0.17c0,0.03,0.01,0.04,0.03,0.06
			c0.02,0.01,0.04,0.01,0.07,0.01h0.09c0.03,0,0.05,0,0.07-0.01c0.02-0.01,0.03-0.03,0.03-0.06V90.64L509.21,90.64z"/>
		<path id="path11614"   class="st4" d="M509.65,90.65c0-0.01,0-0.03,0-0.03
			c0-0.01-0.01-0.02-0.02-0.03c-0.01-0.01-0.02-0.01-0.03-0.02c-0.01,0-0.02,0-0.04,0h-0.09c-0.02,0-0.03,0-0.04,0
			c-0.01,0-0.02,0.01-0.03,0.02c-0.01,0.01-0.02,0.02-0.02,0.03c0,0.01,0,0.02,0,0.03v0.23h0.06v-0.23c0-0.02,0-0.03,0.01-0.03
			s0.02-0.01,0.04-0.01h0.06c0.02,0,0.03,0,0.04,0.01c0.01,0.01,0.01,0.02,0.01,0.03v0.23h0.06V90.65L509.65,90.65z"/>
		<path id="path11618"   class="st4" d="M510.05,90.7h-0.18v-0.05c0-0.02,0.02-0.04,0.05-0.04h0.15
			v-0.05h-0.16c-0.03,0-0.05,0.01-0.06,0.02c-0.02,0.01-0.03,0.03-0.03,0.05v0.18c0,0.02,0.01,0.04,0.02,0.05
			c0.02,0.01,0.04,0.02,0.06,0.02h0.17v-0.05h-0.15c-0.03,0-0.05-0.01-0.05-0.03v-0.05h0.18V90.7L510.05,90.7z"/>
		<path id="path11622"   class="st4" d="M505.51,89.97h-0.18v-0.05c0-0.02,0.02-0.04,0.05-0.04h0.15
			v-0.05h-0.16c-0.03,0-0.05,0.01-0.06,0.02c-0.02,0.01-0.03,0.03-0.03,0.05v0.18c0,0.02,0.01,0.04,0.02,0.05
			c0.02,0.01,0.04,0.02,0.06,0.02h0.17V90.1h-0.15c-0.03,0-0.05-0.01-0.05-0.03v-0.05h0.18V89.97L505.51,89.97z"/>
		<path id="path11626"   class="st4" d="M505.91,90.11h-0.1v-0.27h-0.06v0.27h-0.1v0.05h0.25V90.11z
			"/>
		<path id="path11630"   class="st4" d="M506.56,89.97h-0.19v-0.13h-0.06v0.25
			c0,0.02,0.01,0.04,0.03,0.05c0.01,0.01,0.03,0.01,0.06,0.01h0.16V90.1h-0.15c-0.03,0-0.05-0.01-0.05-0.03v-0.06h0.19V89.97z"/>
		<path id="path11634"   class="st4" d="M506.95,89.92v0.15c0,0.01,0,0.02-0.01,0.03
			s-0.02,0.01-0.04,0.01h-0.06c-0.02,0-0.03,0-0.04-0.01c-0.01-0.01-0.01-0.02-0.01-0.03v-0.15c0-0.01,0-0.02,0.01-0.03
			c0.01-0.01,0.02-0.01,0.04-0.01h0.06c0.02,0,0.03,0,0.04,0.01C506.94,89.9,506.95,89.91,506.95,89.92 M507,89.91
			c0-0.05-0.03-0.07-0.09-0.07h-0.09c-0.03,0-0.05,0.01-0.07,0.02c-0.02,0.01-0.03,0.03-0.03,0.05v0.17c0,0.02,0.01,0.04,0.03,0.06
			c0.01,0.01,0.04,0.02,0.07,0.02h0.09c0.06,0,0.09-0.02,0.09-0.07V89.91L507,89.91z"/>
		<path id="path11638"   class="st4" d="M507.44,89.84h-0.07l-0.14,0.12c0,0-0.01,0.01-0.01,0.02
			c0,0.02,0.01,0.03,0.03,0.03l0.08,0c0.03,0,0.04,0.01,0.04,0.03v0.04c0,0.02-0.02,0.03-0.05,0.03h-0.12v-0.27h-0.06v0.31h0.19
			c0.06,0,0.09-0.02,0.09-0.07v-0.05c0-0.02-0.01-0.04-0.02-0.05c-0.01-0.01-0.03-0.02-0.06-0.02h-0.06L507.44,89.84L507.44,89.84z"
			/>
		<path id="path11642"   class="st4" d="M507.83,89.97h-0.18v-0.05c0-0.02,0.02-0.04,0.05-0.04h0.15
			v-0.05h-0.16c-0.03,0-0.05,0.01-0.06,0.02c-0.02,0.01-0.03,0.03-0.03,0.05v0.18c0,0.02,0.01,0.04,0.02,0.05
			c0.02,0.01,0.04,0.02,0.06,0.02h0.17V90.1h-0.15c-0.03,0-0.05-0.01-0.05-0.03v-0.05h0.18V89.97L507.83,89.97z"/>
		<path id="path11646"   class="st4" d="M508.25,90.11h-0.14c-0.02,0-0.04,0-0.04-0.01
			c0-0.01-0.01-0.02-0.01-0.04c0-0.01,0-0.02,0.01-0.03c0.01,0,0.02-0.01,0.04-0.01h0.06c0.03,0,0.05-0.01,0.06-0.02
			c0.02-0.01,0.02-0.03,0.02-0.05V89.9c0-0.02-0.01-0.04-0.02-0.05c-0.02-0.01-0.04-0.02-0.06-0.02H508v0.05h0.14
			c0.02,0,0.04,0.01,0.04,0.02c0,0.01,0,0.02,0,0.04c0,0.02-0.02,0.03-0.05,0.03h-0.06c-0.02,0-0.05,0.01-0.06,0.02
			C508.01,90,508,90.02,508,90.04v0.05c0,0.02,0.01,0.04,0.03,0.05c0.01,0.01,0.03,0.01,0.06,0.01h0.16V90.11z"/>
		<path id="path11650"   class="st4" d="M508.64,90.11h-0.1v-0.27h-0.06v0.27h-0.1v0.05h0.25V90.11
			L508.64,90.11z"/>
		<path id="path11652"   class="st4" d="M508.82,89.84h-0.06v0.31h0.06V89.84z"/>
		<path id="path11656"   class="st4" d="M509.17,90.18h-0.04l-0.04,0.06h0.05L509.17,90.18
			L509.17,90.18z M509.23,89.84h-0.16c-0.03,0-0.05,0.01-0.06,0.02c-0.02,0.01-0.03,0.03-0.03,0.05v0.18c0,0.02,0.01,0.04,0.02,0.05
			c0.02,0.01,0.04,0.02,0.06,0.02h0.17V90.1h-0.15c-0.03,0-0.05-0.01-0.05-0.04v-0.05h0.19v-0.05h-0.19v-0.05
			c0-0.02,0.02-0.04,0.05-0.04h0.15V89.84L509.23,89.84z"/>
		<path id="path11660"   class="st4" d="M509.66,89.84h-0.07l-0.14,0.12c0,0-0.01,0.01-0.01,0.02
			c0,0.02,0.01,0.03,0.03,0.03l0.08,0c0.03,0,0.04,0.01,0.04,0.03v0.04c0,0.02-0.02,0.03-0.05,0.03h-0.12v-0.27h-0.06v0.31h0.19
			c0.06,0,0.09-0.02,0.09-0.07v-0.05c0-0.02-0.01-0.04-0.02-0.05c-0.01-0.01-0.03-0.02-0.06-0.02h-0.06L509.66,89.84L509.66,89.84z"
			/>
		<path id="path11664"   class="st4" d="M510.05,89.97h-0.18v-0.05c0-0.02,0.02-0.04,0.05-0.04h0.15
			v-0.05h-0.16c-0.03,0-0.05,0.01-0.06,0.02c-0.02,0.01-0.03,0.03-0.03,0.05v0.18c0,0.02,0.01,0.04,0.02,0.05
			c0.02,0.01,0.04,0.02,0.06,0.02h0.17V90.1h-0.15c-0.03,0-0.05-0.01-0.05-0.03v-0.05h0.18V89.97L510.05,89.97z"/>
		<path id="path16847"   class="st4" d="M505.33,92.03h-0.06v0.31h0.06V92.03z"/>
	</g>
</g>
</svg>
