<?xml version="1.0" encoding="utf-8"?>
<!-- Generator: Adobe Illustrator 16.0.0, SVG Export Plug-In . SVG Version: 6.00 Build 0)  -->
<!DOCTYPE svg PUBLIC "-//W3C//DTD SVG 1.1//EN" "http://www.w3.org/Graphics/SVG/1.1/DTD/svg11.dtd">
<svg version="1.1" id="Calque_1" xmlns="http://www.w3.org/2000/svg" xmlns:xlink="http://www.w3.org/1999/xlink" x="0px" y="0px"
	 width="55px" height="55px" viewBox="0 0 55 55" style="enable-background:new 0 0 55 55;" xml:space="preserve">
<style type="text/css">
<![CDATA[
	.st0{fill:#80CC28;}
	.st1{fill:url(#SVGID_1_);}
	.st2{fill:#FFFFFE;}
	.st3{fill:#FFFFFF;}
	.st4{fill:#676C70;}
	.st5{fill:#45BFDC;}
]]>
</style>
<g>
	<g>
		<path class="st3" d="M11.78,19.55c0-0.04-0.04-0.08-0.07-0.08c-0.06,0-0.09,0.04-0.09,0.08c0,0.06,0.04,0.09,0.09,0.09
			C11.74,19.64,11.78,19.61,11.78,19.55z M16.71,20.56c0-0.06-0.06-0.11-0.13-0.11c-0.06,0-0.11,0.06-0.11,0.13
			c0,0.06,0.06,0.11,0.13,0.11C16.65,20.7,16.71,20.64,16.71,20.56z M12.29,19.72c-0.01-0.08-0.07-0.15-0.15-0.15
			c-0.08,0-0.15,0.08-0.15,0.15c0,0.08,0.07,0.15,0.15,0.15c0,0,0,0,0,0C12.23,19.87,12.29,19.81,12.29,19.72z M10.73,19.74
			c0-0.06-0.06-0.11-0.13-0.11c-0.06,0-0.11,0.06-0.11,0.13c0,0.06,0.06,0.11,0.13,0.11C10.67,19.87,10.73,19.81,10.73,19.74z
			 M10.05,20.06c0-0.08-0.04-0.11-0.11-0.11c-0.06,0-0.09,0.04-0.09,0.11c0,0.06,0.04,0.09,0.11,0.09
			C10.01,20.15,10.05,20.12,10.05,20.06z M9.9,20.55c0-0.04-0.04-0.09-0.09-0.09c-0.04,0.02-0.08,0.06-0.08,0.09
			c0,0.06,0.04,0.09,0.08,0.09C9.86,20.64,9.9,20.6,9.9,20.55z M10.16,20.71c0,0.08,0.07,0.13,0.15,0.13c0.07,0,0.13-0.05,0.13-0.12
			c0,0,0,0,0-0.01c0-0.07-0.08-0.13-0.15-0.13C10.22,20.58,10.16,20.64,10.16,20.71z M10.57,20.89c0,0.09,0.07,0.17,0.17,0.17h0
			c0.09,0,0.17-0.08,0.17-0.17c0-0.09-0.08-0.17-0.17-0.17C10.65,20.71,10.56,20.79,10.57,20.89L10.57,20.89z M11.01,21.45
			c0,0.06,0.04,0.09,0.09,0.09c0.06,0,0.09-0.04,0.09-0.09c0-0.06-0.04-0.09-0.09-0.09C11.05,21.36,11.01,21.39,11.01,21.45z
			 M11.39,21.96c-0.08,0-0.15,0.06-0.15,0.15c0,0,0,0,0,0c0,0.08,0.07,0.13,0.15,0.13c0.07,0,0.13-0.08,0.13-0.15
			C11.52,22.01,11.46,21.96,11.39,21.96z M11.23,22.69c0.08,0,0.15-0.06,0.15-0.14c0,0,0,0,0,0c0-0.08-0.07-0.15-0.15-0.15h0
			c-0.08,0-0.15,0.08-0.15,0.15S11.16,22.69,11.23,22.69z M10.59,22.97c0.04,0,0.09-0.04,0.09-0.09c-0.02-0.04-0.06-0.08-0.09-0.08
			c-0.06,0-0.09,0.04-0.09,0.08C10.5,22.94,10.54,22.97,10.59,22.97z M10.46,23.46c0.09,0,0.17-0.07,0.17-0.15
			c0-0.09-0.08-0.17-0.17-0.15c-0.09,0-0.17,0.06-0.17,0.15C10.31,23.39,10.37,23.46,10.46,23.46z M9.8,23.69
			c0,0.04,0.04,0.07,0.08,0.07c0.06,0,0.09-0.04,0.09-0.07c0-0.06-0.04-0.09-0.09-0.09C9.84,23.6,9.8,23.63,9.8,23.69z M17.35,27.62
			c0,0.07,0.07,0.13,0.15,0.13s0.13-0.06,0.13-0.15c0-0.07-0.05-0.13-0.13-0.13c0,0,0,0-0.01,0C17.41,27.47,17.35,27.53,17.35,27.62
			z M17.8,27.79c0,0.09,0.08,0.15,0.15,0.15c0.08,0,0.15-0.08,0.13-0.15c0-0.07-0.05-0.13-0.13-0.13c0,0,0,0-0.01,0
			C17.88,27.66,17.8,27.72,17.8,27.79z M18.44,27.47c0,0.08,0.08,0.15,0.15,0.15c0.08,0,0.15-0.07,0.13-0.15
			c0-0.07-0.05-0.13-0.12-0.13c0,0-0.01,0-0.01,0C18.52,27.34,18.44,27.4,18.44,27.47z M20.55,25.53c0,0.08,0.07,0.13,0.15,0.13
			c0.08,0,0.15-0.06,0.15-0.13c-0.02-0.09-0.07-0.15-0.15-0.15C20.62,25.39,20.55,25.45,20.55,25.53z M21.21,25.2
			c0.02,0.09,0.07,0.15,0.15,0.15c0.09,0,0.15-0.08,0.15-0.15c0-0.08-0.06-0.15-0.15-0.15C21.28,25.04,21.21,25.12,21.21,25.2z
			 M19.83,26.31c0,0.07,0.06,0.15,0.13,0.15c0.07,0,0.15-0.08,0.15-0.15c0-0.08-0.08-0.13-0.15-0.13
			C19.9,26.17,19.84,26.23,19.83,26.31C19.83,26.3,19.83,26.3,19.83,26.31z M19.06,27.11c0,0.08,0.06,0.13,0.13,0.13
			c0.07,0,0.13-0.05,0.13-0.13c0,0,0,0,0,0c0-0.07-0.05-0.13-0.13-0.13c0,0,0,0-0.01,0C19.12,26.98,19.06,27.04,19.06,27.11
			C19.06,27.11,19.06,27.11,19.06,27.11z M16.88,25.89c0,0.06,0.06,0.11,0.11,0.11c0.06,0,0.11-0.06,0.11-0.11
			c0-0.06-0.05-0.11-0.11-0.11C16.92,25.78,16.88,25.83,16.88,25.89z M15.09,26.42c0,0.09,0.07,0.17,0.17,0.17
			c0.1,0,0.19-0.08,0.19-0.19c0-0.09-0.09-0.17-0.19-0.17C15.17,26.23,15.09,26.31,15.09,26.42z M14.43,26.76
			c0,0.09,0.06,0.15,0.13,0.15c0.09,0,0.15-0.07,0.15-0.15c0-0.07-0.08-0.13-0.15-0.13C14.49,26.62,14.41,26.68,14.43,26.76z
			 M9.86,24.16c0-0.07-0.05-0.13-0.12-0.13c0,0-0.01,0-0.01,0c-0.07,0-0.13,0.06-0.13,0.13c0,0.07,0.06,0.13,0.13,0.13
			C9.8,24.29,9.86,24.24,9.86,24.16C9.86,24.16,9.86,24.16,9.86,24.16z M9.73,24.63c0-0.09-0.07-0.17-0.17-0.17h0
			c-0.09,0-0.17,0.08-0.17,0.17c0,0,0,0,0,0c0,0.09,0.07,0.17,0.17,0.17c0,0,0,0,0,0C9.65,24.8,9.73,24.72,9.73,24.63L9.73,24.63z
			 M9.62,25.12c0-0.09-0.09-0.19-0.19-0.19c-0.11,0.02-0.19,0.09-0.19,0.21c0,0.1,0.09,0.19,0.19,0.17
			C9.54,25.31,9.62,25.23,9.62,25.12z M9.11,25.57c0,0.11,0.08,0.19,0.19,0.19c0.1,0,0.19-0.08,0.19-0.19
			c-0.02-0.11-0.09-0.19-0.21-0.19C9.18,25.38,9.09,25.48,9.11,25.57L9.11,25.57z M9.15,26.23c0.09,0,0.17-0.07,0.17-0.17v0
			c-0.02-0.09-0.08-0.17-0.17-0.17c-0.09,0.02-0.17,0.08-0.17,0.17C8.98,26.15,9.05,26.23,9.15,26.23
			C9.14,26.23,9.14,26.23,9.15,26.23z M9.01,26.7c0.08,0,0.15-0.08,0.15-0.17S9.09,26.38,9,26.38c-0.08,0-0.15,0.08-0.15,0.15
			C8.84,26.62,8.92,26.7,9.01,26.7z M8.84,27.15c0.07,0,0.13-0.05,0.13-0.13c0,0,0,0,0-0.01c0-0.08-0.06-0.15-0.13-0.13
			c-0.07,0-0.13,0.05-0.13,0.12c0,0,0,0,0,0.01C8.71,27.09,8.77,27.15,8.84,27.15z M8.69,27.34c-0.07,0.02-0.13,0.06-0.13,0.13
			c0,0.08,0.06,0.11,0.13,0.11c0.06,0,0.11-0.05,0.11-0.11C8.81,27.4,8.75,27.34,8.69,27.34z M8.56,27.81
			c-0.06,0-0.11,0.06-0.11,0.13c0,0.06,0.06,0.11,0.11,0.11c0.07,0,0.13-0.06,0.13-0.11C8.7,27.87,8.64,27.81,8.56,27.81
			C8.57,27.81,8.56,27.81,8.56,27.81z M8.54,28.39c0-0.06-0.05-0.11-0.11-0.11c-0.08,0-0.13,0.06-0.13,0.11
			c0,0.07,0.06,0.13,0.13,0.13C8.49,28.53,8.54,28.47,8.54,28.39z M8.17,28.88c0,0.06,0.04,0.09,0.09,0.09s0.09-0.04,0.09-0.09
			c0-0.06-0.04-0.09-0.09-0.09S8.17,28.85,8.17,28.88z M8.02,29.35c0,0.06,0.06,0.09,0.09,0.09c0.06,0,0.09-0.04,0.09-0.09
			c0-0.06-0.04-0.09-0.09-0.09C8.07,29.26,8.02,29.3,8.02,29.35z M7.88,29.82c0,0.06,0.04,0.11,0.09,0.11
			c0.08,0,0.11-0.06,0.11-0.11c0-0.06-0.06-0.09-0.11-0.09C7.92,29.73,7.88,29.77,7.88,29.82z M7.73,30.29
			c0,0.04,0.06,0.09,0.09,0.09c0.06,0,0.09-0.06,0.09-0.09c0-0.06-0.04-0.11-0.09-0.11C7.77,30.2,7.73,30.24,7.73,30.29z
			 M7.66,30.75c0,0.04,0.02,0.06,0.04,0.06c0.02,0,0.04-0.02,0.04-0.06c0-0.02-0.02-0.04-0.04-0.04
			C7.66,30.71,7.64,30.73,7.66,30.75z M9.2,24.52c0-0.04-0.04-0.07-0.06-0.07c-0.04,0-0.07,0.04-0.07,0.07s0.04,0.06,0.07,0.06
			C9.18,24.57,9.2,24.55,9.2,24.52z M9.07,24.95c0-0.08-0.06-0.11-0.11-0.11c-0.06,0-0.09,0.06-0.09,0.11
			c0,0.06,0.04,0.09,0.09,0.09C9.03,25.04,9.07,25.01,9.07,24.95z M8.98,25.42c0-0.08-0.06-0.15-0.15-0.15c0,0,0,0,0,0
			c-0.07,0-0.15,0.07-0.15,0.15c0.02,0.07,0.08,0.15,0.15,0.15C8.91,25.57,8.98,25.51,8.98,25.42C8.98,25.42,8.98,25.42,8.98,25.42z
			 M8.81,25.91c0-0.09-0.06-0.15-0.13-0.15c-0.08,0-0.15,0.07-0.15,0.15c0,0,0,0,0,0c0,0.07,0.06,0.15,0.15,0.15
			C8.75,26.06,8.83,25.99,8.81,25.91z M8.67,26.38c0-0.07-0.05-0.13-0.13-0.13c0,0,0,0,0,0c-0.08,0-0.15,0.06-0.13,0.13
			c0,0.08,0.06,0.13,0.13,0.13C8.61,26.51,8.67,26.46,8.67,26.38C8.67,26.38,8.67,26.38,8.67,26.38z M8.52,26.83
			c0-0.07-0.05-0.13-0.13-0.13c0,0,0,0-0.01,0c-0.07,0-0.13,0.05-0.13,0.12c0,0,0,0,0,0.01c0,0.07,0.06,0.13,0.13,0.13
			C8.46,26.97,8.52,26.91,8.52,26.83C8.52,26.84,8.52,26.83,8.52,26.83z M8.24,27.15c-0.06,0.02-0.13,0.07-0.13,0.15
			c0,0.08,0.08,0.13,0.15,0.13c0.08,0,0.13-0.07,0.13-0.13C8.39,27.23,8.32,27.15,8.24,27.15z M8.09,27.68
			c-0.06,0-0.11,0.06-0.11,0.11c0,0.07,0.06,0.13,0.13,0.11c0.06,0,0.11-0.04,0.11-0.11S8.17,27.68,8.09,27.68z M7.96,28.36
			c0.06,0,0.09-0.04,0.09-0.09s-0.04-0.09-0.09-0.09c-0.06,0-0.09,0.04-0.09,0.09S7.9,28.36,7.96,28.36z M7.92,28.73
			c0-0.06-0.04-0.09-0.09-0.09c-0.04,0-0.09,0.04-0.09,0.09c0,0.04,0.06,0.09,0.09,0.09C7.88,28.83,7.92,28.77,7.92,28.73z
			 M7.45,29.65c0,0.04,0.04,0.06,0.06,0.06c0.04,0,0.06-0.02,0.06-0.06c0-0.02-0.02-0.06-0.06-0.06C7.47,29.6,7.45,29.63,7.45,29.65
			z M7.3,30.16c0,0.04,0.04,0.06,0.06,0.06c0.04,0,0.08-0.02,0.08-0.06c-0.02-0.04-0.04-0.06-0.08-0.06
			C7.32,30.11,7.3,30.12,7.3,30.16z M7.17,30.63c0,0.04,0.02,0.06,0.06,0.06c0.04,0,0.06-0.02,0.06-0.06s-0.02-0.06-0.06-0.06
			C7.19,30.58,7.17,30.6,7.17,30.63z M8.37,25.33c0-0.04-0.02-0.06-0.06-0.06c-0.02,0-0.06,0.02-0.06,0.06
			c0,0.04,0.04,0.06,0.06,0.06C8.35,25.38,8.37,25.34,8.37,25.33z M8.24,25.74c0-0.04-0.04-0.06-0.06-0.06
			c-0.04,0-0.08,0.02-0.08,0.06c0,0.04,0.04,0.06,0.08,0.06C8.2,25.8,8.24,25.78,8.24,25.74z M8.13,26.23
			c0-0.04-0.04-0.08-0.09-0.08c-0.04,0-0.08,0.04-0.08,0.08c0,0.06,0.04,0.09,0.08,0.09C8.09,26.32,8.13,26.29,8.13,26.23z
			 M7.98,26.72c0-0.06-0.04-0.07-0.09-0.07c-0.04,0-0.07,0.04-0.07,0.07c0,0.04,0.04,0.08,0.09,0.08
			C7.94,26.79,7.98,26.76,7.98,26.72z M7.77,27.08c-0.04,0-0.08,0.06-0.08,0.09c0,0.06,0.04,0.09,0.08,0.09
			c0.06,0,0.09-0.04,0.09-0.09C7.87,27.13,7.83,27.08,7.77,27.08z M7.55,27.64c0,0.06,0.04,0.09,0.09,0.09
			c0.04,0,0.08-0.04,0.08-0.09c0-0.06-0.04-0.09-0.09-0.09C7.58,27.55,7.55,27.58,7.55,27.64z M7.56,28.11
			c0-0.06-0.04-0.09-0.09-0.09c-0.04,0-0.07,0.04-0.07,0.09c0,0.04,0.04,0.09,0.09,0.07C7.53,28.18,7.56,28.15,7.56,28.11z
			 M7.25,28.58c0,0.06,0.04,0.09,0.09,0.09c0.06,0,0.09-0.04,0.09-0.09c0-0.06-0.04-0.09-0.09-0.09
			C7.28,28.49,7.25,28.53,7.25,28.58z M6.98,29.54c0,0.04,0.02,0.06,0.06,0.06s0.06-0.02,0.06-0.06c0-0.04-0.02-0.06-0.06-0.06
			S6.98,29.5,6.98,29.54z M6.85,29.99c0,0.02,0.02,0.04,0.04,0.04c0.02,0,0.04-0.02,0.04-0.04c0-0.02-0.02-0.04-0.04-0.04
			C6.87,29.96,6.85,29.98,6.85,29.99z M6.7,30.48c0,0.04,0.02,0.06,0.06,0.06c0.04,0,0.06-0.02,0.06-0.06
			c0-0.04-0.02-0.06-0.06-0.06C6.72,30.42,6.7,30.45,6.7,30.48z M7.21,27.53c0-0.02-0.02-0.04-0.06-0.04
			c-0.02,0-0.04,0.02-0.04,0.04c0,0.02,0.02,0.04,0.04,0.04C7.19,27.56,7.21,27.55,7.21,27.53z M7.32,27.08
			c0-0.02-0.02-0.04-0.04-0.04c-0.04,0-0.06,0.02-0.06,0.04c0,0.04,0.04,0.06,0.06,0.06C7.3,27.13,7.32,27.11,7.32,27.08z M7.08,28
			c0-0.04-0.04-0.06-0.06-0.06C7,27.94,6.98,27.96,6.98,28c0,0.02,0.02,0.04,0.04,0.04C7.06,28.04,7.08,28.02,7.08,28z M6.83,28.45
			c0,0.04,0.02,0.06,0.04,0.06c0.04,0,0.06-0.02,0.06-0.06c0-0.02-0.02-0.04-0.06-0.04C6.85,28.41,6.83,28.43,6.83,28.45z
			 M6.72,28.88c-0.02,0-0.04,0.02-0.04,0.04c0,0.04,0.02,0.06,0.04,0.06c0.04,0,0.06-0.04,0.06-0.06
			C6.77,28.9,6.76,28.88,6.72,28.88z M6.53,29.37c0,0.04,0.02,0.06,0.04,0.06c0.04,0,0.06-0.02,0.06-0.06
			c0-0.02-0.02-0.04-0.06-0.04C6.55,29.33,6.53,29.35,6.53,29.37z M6.53,27.88c0,0.04,0.02,0.06,0.06,0.06
			c0.02,0,0.04-0.02,0.04-0.06c0-0.02-0.02-0.04-0.04-0.04C6.55,27.85,6.53,27.87,6.53,27.88z M6.47,28.36
			c0-0.02-0.02-0.04-0.04-0.04c-0.04,0-0.06,0.02-0.06,0.04s0.02,0.04,0.06,0.04C6.46,28.39,6.47,28.37,6.47,28.36z M6.23,28.83
			c0,0.02,0.02,0.04,0.06,0.04c0.02,0,0.04-0.02,0.04-0.04c0-0.02-0.02-0.06-0.04-0.06C6.25,28.79,6.23,28.81,6.23,28.83z
			 M6.08,29.28c0,0.02,0.02,0.04,0.06,0.04c0.02,0,0.04-0.02,0.04-0.04c0-0.02-0.02-0.06-0.04-0.04C6.1,29.24,6.08,29.26,6.08,29.28
			z M6.42,29.86c0,0.02,0.02,0.04,0.04,0.04c0.02,0,0.04-0.02,0.04-0.04c0-0.04-0.02-0.06-0.04-0.06
			C6.44,29.8,6.42,29.82,6.42,29.86z M5.96,29.73c0,0.04,0.02,0.06,0.04,0.06c0.02,0,0.04-0.02,0.04-0.06
			c0-0.02-0.02-0.04-0.04-0.04C5.98,29.69,5.96,29.71,5.96,29.73z M5.8,30.22c0,0.02,0.02,0.04,0.06,0.04
			c0.02,0,0.04-0.02,0.04-0.04c0-0.04-0.02-0.06-0.04-0.06C5.81,30.16,5.8,30.2,5.8,30.22z M6.25,30.35c0,0.02,0.02,0.04,0.04,0.04
			c0.04,0,0.06-0.02,0.06-0.04s-0.02-0.04-0.06-0.04C6.27,30.31,6.25,30.33,6.25,30.35z M9.84,24.8c0,0.11,0.09,0.21,0.21,0.21
			c0.11,0,0.21-0.09,0.21-0.21c0-0.11-0.09-0.21-0.21-0.21C9.93,24.59,9.84,24.68,9.84,24.8z M9.97,24.29
			c0,0.11,0.09,0.21,0.21,0.21c0.11,0,0.21-0.09,0.21-0.21c-0.02-0.11-0.11-0.21-0.23-0.21C10.05,24.08,9.95,24.18,9.97,24.29
			L9.97,24.29z M9.71,25.25c0,0.11,0.09,0.21,0.21,0.21c0.11,0,0.21-0.09,0.21-0.21c0-0.11-0.09-0.21-0.23-0.21
			C9.79,25.04,9.71,25.14,9.71,25.25z M9.77,25.93c0.11,0,0.21-0.09,0.21-0.19c-0.02-0.11-0.09-0.21-0.21-0.21
			c-0.11,0-0.21,0.09-0.19,0.21C9.58,25.85,9.65,25.93,9.77,25.93z M9.62,26.38c0.09,0,0.17-0.09,0.17-0.19
			c0-0.09-0.08-0.17-0.17-0.15c-0.09,0-0.17,0.07-0.17,0.17S9.52,26.38,9.62,26.38z M9.31,26.66c0,0.09,0.07,0.15,0.15,0.15
			c0.09,0,0.15-0.06,0.15-0.15c0-0.08-0.06-0.15-0.15-0.15c0,0,0,0,0,0C9.39,26.51,9.31,26.59,9.31,26.66z M9.31,26.96
			c-0.08,0-0.15,0.07-0.15,0.15c0,0.09,0.07,0.15,0.15,0.15c0.09,0,0.15-0.06,0.15-0.15C9.47,27.03,9.4,26.96,9.31,26.96
			C9.32,26.96,9.32,26.96,9.31,26.96z M9.18,27.49c-0.06,0-0.11,0.06-0.11,0.13c0,0.07,0.06,0.13,0.13,0.13
			c0.06,0,0.11-0.06,0.11-0.13C9.32,27.55,9.26,27.49,9.18,27.49C9.19,27.49,9.19,27.49,9.18,27.49L9.18,27.49z M9.01,27.96
			c-0.07,0-0.13,0.05-0.13,0.13c0,0,0,0,0,0c0,0.08,0.07,0.13,0.13,0.13c0.08,0,0.15-0.06,0.15-0.13
			C9.15,28.02,9.09,27.96,9.01,27.96z M9.01,28.54C9,28.49,8.94,28.43,8.88,28.43c-0.07,0-0.13,0.05-0.13,0.13c0,0,0,0,0,0.01
			c0,0.06,0.06,0.11,0.13,0.11C8.96,28.68,9.01,28.62,9.01,28.54z M8.47,29.5c0,0.06,0.06,0.11,0.11,0.11
			c0.07,0,0.13-0.05,0.13-0.13c0,0,0,0,0-0.01c0-0.06-0.06-0.11-0.13-0.11C8.52,29.37,8.47,29.43,8.47,29.5z M8.34,29.96
			c0,0.06,0.06,0.11,0.11,0.11c0.06,0,0.11-0.05,0.11-0.11c0-0.06-0.06-0.11-0.11-0.11C8.37,29.84,8.34,29.9,8.34,29.96z
			 M8.26,30.45c0,0.04,0.02,0.06,0.06,0.06c0.02,0,0.06-0.02,0.06-0.06s-0.04-0.06-0.06-0.06C8.28,30.39,8.26,30.41,8.26,30.45z
			 M8.13,30.9c0,0.02,0.02,0.04,0.04,0.04c0.02,0,0.04-0.02,0.04-0.04c0-0.02-0.02-0.04-0.04-0.04C8.15,30.86,8.13,30.88,8.13,30.9z
			 M10.14,25.4c0,0.13,0.09,0.23,0.23,0.23c0.11,0,0.23-0.11,0.21-0.23c0-0.12-0.09-0.22-0.21-0.23c0,0-0.01,0-0.02,0
			C10.24,25.17,10.14,25.27,10.14,25.4z M10.27,24.95c0,0.11,0.11,0.22,0.23,0.22c0.12,0,0.22-0.1,0.23-0.22
			c0-0.13-0.09-0.23-0.23-0.23C10.37,24.72,10.27,24.82,10.27,24.95z M10.86,23.03c0,0.13,0.09,0.23,0.22,0.23
			c0.11,0,0.21-0.11,0.21-0.23c0.01-0.12-0.09-0.22-0.21-0.23c-0.01,0-0.01,0-0.02,0C10.95,22.81,10.86,22.92,10.86,23.03z
			 M10.14,23.8c0,0.11,0.08,0.19,0.19,0.19c0.09,0,0.17-0.09,0.17-0.19s-0.08-0.19-0.17-0.19C10.22,23.63,10.14,23.71,10.14,23.8z
			 M10.09,26.53c0.11,0,0.19-0.07,0.19-0.19c0-0.11-0.07-0.19-0.19-0.19c-0.1,0.01-0.18,0.09-0.19,0.19
			C9.9,26.45,9.98,26.53,10.09,26.53L10.09,26.53z M9.95,26.64c-0.09,0-0.17,0.07-0.17,0.17c0,0.1,0.07,0.17,0.17,0.17
			c0.09,0,0.17-0.07,0.17-0.17C10.12,26.72,10.05,26.64,9.95,26.64z M9.79,27.13c-0.09,0-0.17,0.07-0.17,0.17c0,0,0,0,0,0
			c0,0.07,0.08,0.15,0.17,0.15c0.07,0,0.15-0.08,0.15-0.17C9.94,27.21,9.86,27.13,9.79,27.13z M9.64,27.62
			c-0.08,0-0.15,0.07-0.15,0.15c0,0.09,0.08,0.15,0.15,0.15c0.09,0,0.15-0.06,0.15-0.15C9.79,27.7,9.71,27.62,9.64,27.62z
			 M9.64,28.21c0-0.06-0.06-0.13-0.13-0.13c-0.08,0-0.13,0.08-0.13,0.15c0,0.08,0.06,0.13,0.13,0.13
			C9.58,28.36,9.64,28.28,9.64,28.21L9.64,28.21z M9.24,28.71c0,0.06,0.06,0.11,0.11,0.11s0.11-0.06,0.11-0.11
			c0-0.08-0.06-0.11-0.11-0.11S9.24,28.64,9.24,28.71z M8.92,29.65c0,0.07,0.06,0.13,0.15,0.13c0.07,0,0.13-0.05,0.13-0.13
			c0,0,0,0,0,0c0-0.09-0.06-0.15-0.15-0.15C8.98,29.5,8.92,29.58,8.92,29.65z M8.84,30.12c0,0.04,0.02,0.06,0.06,0.06
			c0.04,0,0.06-0.02,0.06-0.06c0-0.02-0.04-0.06-0.06-0.06C8.86,30.07,8.84,30.11,8.84,30.12z M8.73,30.58
			c0,0.02,0.02,0.04,0.04,0.02c0.02,0,0.04,0,0.04-0.04c0-0.02-0.02-0.02-0.04-0.02C8.75,30.54,8.73,30.54,8.73,30.58z M10.69,26.23
			c0.11,0,0.21-0.09,0.21-0.21s-0.09-0.21-0.21-0.21c-0.11,0-0.21,0.09-0.21,0.21S10.57,26.23,10.69,26.23z M10.24,26.08
			c0.11,0,0.21-0.1,0.21-0.21c-0.02-0.11-0.11-0.21-0.23-0.21c-0.11,0.02-0.21,0.09-0.19,0.22C10.03,26,10.12,26.08,10.24,26.08z
			 M10.56,26.3c-0.1,0.01-0.18,0.09-0.18,0.2c0.01,0.1,0.08,0.17,0.18,0.18c0.1,0,0.19-0.08,0.19-0.19
			C10.74,26.39,10.66,26.3,10.56,26.3z M10.41,26.77c-0.09,0-0.17,0.09-0.17,0.19c0,0.09,0.09,0.17,0.19,0.15
			c0.09,0,0.17-0.07,0.15-0.17C10.58,26.85,10.5,26.78,10.41,26.77L10.41,26.77z M10.26,27.28c-0.09,0-0.17,0.08-0.15,0.17
			c0,0.09,0.08,0.17,0.17,0.17c0.09,0,0.17-0.08,0.17-0.17C10.44,27.36,10.35,27.28,10.26,27.28L10.26,27.28z M10.27,27.91
			c0-0.08-0.06-0.15-0.15-0.15c0,0,0,0,0,0c-0.09,0-0.17,0.06-0.15,0.15c0,0.07,0.06,0.15,0.15,0.15
			C10.2,28.06,10.27,27.98,10.27,27.91z M9.84,28.39c0,0.07,0.07,0.13,0.15,0.13c0.07,0,0.13-0.05,0.13-0.13c0,0,0,0,0-0.01
			c0-0.09-0.06-0.15-0.13-0.15C9.91,28.24,9.84,28.31,9.84,28.39C9.84,28.39,9.84,28.39,9.84,28.39z M9.65,28.83
			c0,0.09,0.07,0.17,0.19,0.17c0.09,0,0.17-0.07,0.17-0.17c0,0,0,0,0,0c0-0.11-0.08-0.19-0.19-0.19
			C9.73,28.64,9.65,28.73,9.65,28.83z M9.52,29.37c0,0.08,0.06,0.13,0.13,0.13c0.07,0,0.15-0.06,0.15-0.15
			c0-0.08-0.08-0.13-0.15-0.13C9.58,29.22,9.5,29.28,9.52,29.37z M9.48,29.79c0,0.04,0.02,0.06,0.06,0.06
			c0.04,0,0.06-0.02,0.06-0.06s-0.02-0.06-0.06-0.06C9.5,29.73,9.48,29.75,9.48,29.79z M11.05,26.44c-0.13,0-0.23,0.09-0.23,0.21
			c0,0.13,0.11,0.23,0.23,0.23c0.11,0,0.22-0.09,0.21-0.23C11.25,26.53,11.16,26.44,11.05,26.44z M11.08,27.09
			c0-0.11-0.09-0.21-0.21-0.21c-0.11,0-0.21,0.09-0.21,0.21c0,0.13,0.09,0.21,0.21,0.21C10.99,27.3,11.08,27.21,11.08,27.09z
			 M10.74,27.38c-0.09,0-0.19,0.09-0.19,0.21c0,0.09,0.09,0.19,0.21,0.19c0.09,0,0.19-0.09,0.19-0.21
			C10.95,27.47,10.86,27.38,10.74,27.38z M10.41,28.04c0,0.11,0.07,0.19,0.17,0.19c0.1,0,0.17-0.09,0.17-0.19
			c0-0.09-0.07-0.17-0.17-0.17C10.48,27.87,10.41,27.94,10.41,28.04z M10.27,28.51c0,0.11,0.09,0.19,0.19,0.19
			c0.11,0,0.21-0.08,0.19-0.19c0-0.11-0.08-0.19-0.19-0.19C10.36,28.32,10.28,28.41,10.27,28.51z M10.1,29.47
			c0,0.04,0.02,0.06,0.04,0.06c0.04,0,0.06-0.02,0.06-0.06c0-0.02-0.02-0.04-0.06-0.04C10.12,29.43,10.11,29.45,10.1,29.47z
			 M11.4,27.72c0-0.11-0.09-0.21-0.23-0.21c-0.11,0-0.21,0.09-0.21,0.21c0,0.13,0.09,0.22,0.23,0.22
			C11.31,27.94,11.4,27.83,11.4,27.72z M11.08,27.26c0,0.13,0.11,0.23,0.25,0.23c0.13,0,0.23-0.09,0.23-0.23
			c0-0.13-0.1-0.24-0.23-0.24C11.2,27.02,11.08,27.13,11.08,27.26z M10.82,28.21c0,0.13,0.11,0.24,0.22,0.24
			c0.13,0,0.25-0.11,0.23-0.24c0-0.13-0.09-0.23-0.23-0.23C10.91,27.98,10.82,28.09,10.82,28.21z M10.76,28.69
			c0.02,0.08,0.07,0.13,0.15,0.13c0.07,0,0.15-0.06,0.13-0.13c0-0.08-0.06-0.15-0.13-0.15C10.84,28.54,10.76,28.62,10.76,28.69z
			 M11.4,28.36c0,0.08,0.06,0.13,0.11,0.13c0.07,0,0.13-0.08,0.13-0.13c0-0.07-0.05-0.13-0.12-0.13c0,0,0,0,0,0
			C11.46,28.22,11.4,28.28,11.4,28.36z M10.93,26.21c0,0.11,0.09,0.23,0.23,0.21c0.11,0,0.21-0.09,0.21-0.23
			c0-0.11-0.09-0.21-0.23-0.21C11.03,25.99,10.93,26.08,10.93,26.21z M10.57,25.57c0.02,0.13,0.11,0.23,0.25,0.23
			c0.12,0,0.22-0.1,0.22-0.23c0-0.13-0.09-0.24-0.22-0.24C10.69,25.33,10.58,25.44,10.57,25.57z M11.99,28.06
			c0,0.07,0.08,0.15,0.15,0.15c0.08,0,0.15-0.07,0.15-0.15c0,0,0,0,0,0c0-0.09-0.06-0.15-0.15-0.15
			C12.05,27.9,11.99,27.97,11.99,28.06C11.99,28.05,11.99,28.05,11.99,28.06z M12.59,27.72c0,0.07,0.08,0.15,0.15,0.15
			c0.08,0,0.15-0.06,0.15-0.14c0,0,0,0,0,0c0-0.08-0.07-0.15-0.15-0.15c0,0,0,0,0,0C12.66,27.56,12.59,27.63,12.59,27.72
			C12.59,27.71,12.59,27.71,12.59,27.72z M13.15,27.42c0.02,0.08,0.08,0.15,0.15,0.15c0.1,0,0.15-0.07,0.15-0.15
			c0-0.07-0.06-0.15-0.15-0.15C13.23,27.26,13.15,27.34,13.15,27.42z M13.87,27.06c0,0.07,0.07,0.15,0.15,0.15
			c0.07,0,0.15-0.08,0.15-0.15c0-0.08-0.06-0.15-0.15-0.15c0,0,0,0,0,0C13.94,26.91,13.87,26.97,13.87,27.06
			C13.87,27.05,13.87,27.06,13.87,27.06z M27.98,23.65c-0.19-0.17-0.28-0.38-0.34-0.49c-0.11-0.25-0.49-0.85-0.88-1.22
			c-0.71-0.66-1.41-0.9-2.61-1.13c0,0-1.49-0.28-3.52-0.22v0.02c-0.11,0-0.21,0.08-0.23,0.19c0,0-0.02-0.02-0.04-0.02h-0.02
			c0.02-0.03,0.04-0.06,0.04-0.09c-0.02-0.12-0.11-0.21-0.23-0.21c-0.11,0-0.21,0.09-0.21,0.21v0.02c0-0.04-0.04-0.06-0.08-0.06
			s-0.07,0.04-0.07,0.07v0.02c-0.04-0.06-0.11-0.1-0.19-0.09c-0.11,0-0.21,0.07-0.22,0.17c0-0.02-0.04-0.04-0.08-0.04h-0.02V20.7
			c0-0.09-0.07-0.17-0.17-0.17c0,0,0,0,0,0c-0.11,0-0.19,0.08-0.19,0.19c0-0.04-0.04-0.06-0.06-0.06c-0.04,0-0.06,0.02-0.08,0.06
			V20.7c0-0.12-0.1-0.22-0.22-0.23c-0.12,0-0.22,0.09-0.23,0.21c0,0,0,0.01,0,0.02c0,0.04,0,0.08,0.02,0.11
			c0-0.02-0.02-0.02-0.04-0.02c-0.04,0-0.07,0.04-0.08,0.08c-0.04-0.11-0.13-0.19-0.24-0.17c-0.11,0-0.21,0.06-0.24,0.15
			c-0.04-0.11-0.13-0.19-0.24-0.19c-0.13,0-0.24,0.13-0.24,0.26v0.06c-0.02-0.02-0.04-0.04-0.08-0.04c-0.04,0-0.08,0.04-0.08,0.08
			c-0.02-0.05-0.05-0.1-0.09-0.13c0.09,0,0.15-0.08,0.15-0.17c0-0.09-0.07-0.17-0.19-0.17c-0.09,0-0.17,0.07-0.17,0.17c0,0,0,0,0,0
			c0,0.06,0.02,0.09,0.06,0.13c-0.11,0-0.2,0.07-0.25,0.17V21c0-0.12-0.09-0.22-0.21-0.22c-0.01,0-0.01,0-0.02,0
			c-0.11,0-0.19,0.08-0.23,0.17c0,0,0-0.02-0.02-0.02l0,0c0-0.13-0.11-0.22-0.24-0.22c-0.13,0-0.24,0.09-0.24,0.22
			c0,0.02,0.02,0.04,0.02,0.06c-0.04,0-0.07,0.02-0.11,0.04c-0.02-0.04-0.05-0.07-0.1-0.09c0.1-0.02,0.13-0.09,0.13-0.17
			c0-0.11-0.07-0.19-0.19-0.19c-0.09,0-0.17,0.08-0.17,0.19c0,0.04,0.02,0.09,0.04,0.11c-0.06,0-0.12,0.02-0.17,0.06
			c-0.02-0.05-0.05-0.09-0.09-0.13c0.09-0.02,0.15-0.1,0.15-0.19c0-0.09-0.09-0.19-0.21-0.19c-0.09,0-0.19,0.1-0.19,0.19
			c0,0.06,0.02,0.09,0.04,0.13c-0.06,0-0.09,0.02-0.15,0.04c-0.02-0.05-0.05-0.1-0.09-0.13c0.08-0.04,0.13-0.11,0.13-0.19
			c-0.02-0.11-0.1-0.19-0.21-0.19c-0.11,0-0.19,0.09-0.19,0.19c0,0.04,0.02,0.08,0.02,0.11c-0.05,0.01-0.09,0.02-0.13,0.04
			c-0.02-0.06-0.06-0.09-0.09-0.13c0.08-0.02,0.13-0.09,0.13-0.17c0-0.11-0.08-0.19-0.19-0.19c-0.1,0-0.19,0.08-0.19,0.19
			c0,0.04,0.02,0.08,0.06,0.11c-0.07,0-0.13,0.02-0.19,0.06c-0.02-0.06-0.06-0.11-0.11-0.13c0.09-0.04,0.13-0.09,0.13-0.19
			c0-0.1-0.09-0.19-0.19-0.19c-0.09,0-0.19,0.09-0.17,0.19c0,0.06,0,0.09,0.04,0.11c-0.08,0-0.13,0.04-0.17,0.06
			c-0.02-0.06-0.05-0.11-0.09-0.15c0.06-0.04,0.09-0.1,0.09-0.17c-0.01-0.1-0.09-0.18-0.19-0.19c-0.1,0-0.19,0.08-0.19,0.19
			c0,0.04,0.02,0.06,0.02,0.09c-0.06,0-0.11,0.04-0.15,0.08c-0.02-0.06-0.06-0.12-0.11-0.15c0.08-0.02,0.13-0.09,0.13-0.17
			c0-0.09-0.07-0.15-0.17-0.15c-0.09,0-0.17,0.07-0.17,0.15c0,0.04,0.02,0.08,0.04,0.11h-0.02c-0.08,0-0.16,0.04-0.23,0.09
			C12.19,19.96,12.1,19.9,12,19.9c-0.07,0-0.13,0.04-0.19,0.09c-0.02-0.13-0.11-0.21-0.24-0.21s-0.24,0.11-0.24,0.24
			c0,0.08,0.02,0.11,0.06,0.17h-0.02c-0.08,0-0.13,0.02-0.17,0.06c-0.02-0.06-0.05-0.11-0.09-0.15c0.08-0.02,0.15-0.11,0.15-0.21
			c0-0.11-0.11-0.22-0.23-0.21c-0.13,0-0.22,0.09-0.22,0.21c0,0.06,0.02,0.12,0.06,0.15c-0.07,0-0.14,0.04-0.19,0.09
			C10.63,20.06,10.54,20,10.44,20c-0.15,0-0.24,0.11-0.24,0.25c0,0.13,0.11,0.24,0.24,0.24c0.06-0.02,0.11-0.04,0.15-0.08
			c0.04,0.15,0.15,0.26,0.32,0.26c0.06,0,0.11-0.02,0.15-0.06v0.02c0,0.06,0.02,0.11,0.06,0.15c-0.08,0.05-0.13,0.13-0.13,0.23
			c0,0.13,0.11,0.25,0.25,0.23c0.06,0,0.11-0.02,0.15-0.06c0.05,0.15,0.19,0.24,0.34,0.25c0.04,0,0.08,0,0.11-0.02
			c0,0.02,0.02,0.04,0.02,0.06c-0.06,0.04-0.1,0.1-0.11,0.17c-0.02-0.1-0.1-0.17-0.19-0.17c-0.11,0-0.19,0.07-0.19,0.19
			c0,0.09,0.08,0.19,0.19,0.19c0.06,0,0.11-0.04,0.15-0.08v0.02c0,0.07,0.02,0.15,0.06,0.21c-0.1,0.04-0.17,0.14-0.17,0.25
			c0,0.06,0.04,0.13,0.08,0.17c-0.02,0.02-0.02,0.04-0.02,0.06c-0.13,0.02-0.23,0.13-0.22,0.26c0,0.08,0.06,0.15,0.11,0.21
			c-0.15,0.02-0.24,0.13-0.24,0.28c0,0.08,0.02,0.15,0.06,0.19c0,0-0.09,0.02-0.17,0.09c-0.02-0.11-0.11-0.21-0.23-0.21
			c-0.12,0-0.22,0.1-0.23,0.23c0,0.13,0.11,0.23,0.23,0.23c0.06,0,0.12-0.03,0.15-0.08c0,0.11,0.06,0.21,0.11,0.25
			c-0.07,0-0.13,0.04-0.17,0.09c0-0.14-0.11-0.26-0.25-0.26c0,0-0.01,0-0.01,0c-0.14,0-0.26,0.12-0.26,0.26
			c0,0.07,0.03,0.14,0.08,0.19c-0.11,0.02-0.23,0.13-0.21,0.26c0,0.13,0.11,0.26,0.24,0.26c0.09-0.02,0.15-0.04,0.21-0.11
			c0,0.02-0.02,0.19,0.11,0.25c-0.12,0.02-0.21,0.12-0.21,0.24c0,0.11,0.11,0.23,0.23,0.23c0.09,0,0.15-0.02,0.19-0.09v0.04
			c0,0.09,0.05,0.17,0.13,0.21c-0.13,0.02-0.25,0.11-0.25,0.25c0.02,0.13,0.11,0.24,0.26,0.24c0.06,0,0.11-0.02,0.15-0.06
			c0,0.07,0.06,0.15,0.11,0.19c-0.11,0.04-0.19,0.13-0.19,0.24c0,0.09,0.04,0.17,0.11,0.21c-0.13,0-0.23,0.11-0.23,0.25
			c0,0.13,0.11,0.23,0.23,0.23c0.07,0,0.13-0.04,0.19-0.08c-0.04,0.17,0.11,0.25,0.11,0.25c-0.15,0.02-0.24,0.11-0.24,0.26
			c0,0.08,0.04,0.15,0.11,0.19c-0.13,0-0.24,0.1-0.24,0.23c0,0,0,0.01,0,0.01c0,0.13,0.11,0.24,0.24,0.24
			c0.13,0,0.25-0.11,0.25-0.24c0-0.08-0.04-0.15-0.11-0.19h0.02c0.13,0,0.25-0.11,0.25-0.26c-0.02-0.08-0.06-0.17-0.13-0.21
			c0.07,0.02,0.19-0.04,0.23-0.09c0.02,0.08,0.06,0.17,0.13,0.21c-0.13,0-0.24,0.11-0.24,0.24c0,0.13,0.11,0.24,0.24,0.24
			c0.13,0,0.24-0.1,0.25-0.23c0,0,0-0.01,0-0.01c0-0.09-0.09-0.21-0.09-0.21c0.08,0,0.15-0.04,0.21-0.09c0,0,0.02,0.26,0.24,0.26
			c0.15,0,0.26-0.13,0.24-0.26c0-0.06-0.02-0.12-0.06-0.17c0,0,0.11,0,0.17-0.04c0.04,0.11,0.15,0.19,0.28,0.19
			c0.17,0,0.32-0.14,0.32-0.31c0,0,0,0,0,0c0-0.11-0.08-0.23-0.19-0.28c0.07,0,0.14-0.03,0.19-0.08v0.02c0,0.15,0.13,0.28,0.28,0.28
			c0.15,0,0.28-0.13,0.28-0.28c-0.02-0.08-0.05-0.15-0.11-0.21c0.09,0,0.15-0.04,0.21-0.11v0.04c0,0.15,0.13,0.28,0.28,0.28
			c0.15-0.02,0.26-0.13,0.26-0.28c0-0.11-0.04-0.19-0.13-0.24c0.09,0,0.17-0.04,0.21-0.09c0.02,0.14,0.14,0.25,0.28,0.25
			c0.09,0,0.17-0.04,0.23-0.11c0.02,0.11,0.11,0.19,0.23,0.19c0.13,0,0.24-0.11,0.22-0.24c0-0.07-0.03-0.14-0.09-0.19
			c0.17,0,0.28-0.13,0.28-0.3c0-0.04,0-0.08-0.02-0.13c0.03,0,0.05-0.02,0.08-0.04c0.02,0.08,0.06,0.15,0.11,0.19
			c-0.08,0.04-0.13,0.09-0.13,0.19c0,0.11,0.09,0.21,0.21,0.21c0.11,0,0.21-0.09,0.21-0.21c0-0.05-0.02-0.1-0.06-0.13
			c0.07-0.02,0.13-0.04,0.17-0.09c0.06,0.07,0.15,0.12,0.24,0.11c0.15,0,0.28-0.13,0.28-0.3v-0.02c0.02,0,0.06-0.02,0.07-0.02
			c0,0.04,0.02,0.08,0.06,0.11c-0.04,0.02-0.08,0.07-0.08,0.15c0,0.09,0.08,0.19,0.19,0.19c0.1-0.01,0.18-0.09,0.19-0.19
			c0-0.05-0.02-0.1-0.06-0.13h0.04c0.02,0,0.04,0,0.06-0.02c0.02,0.06,0.06,0.09,0.09,0.11c-0.04,0.05-0.07,0.11-0.08,0.17
			c0,0.15,0.11,0.25,0.25,0.25h0.07c0,0.04,0.02,0.06,0.04,0.08c-0.04,0.02-0.09,0.04-0.11,0.07c-0.04-0.07-0.09-0.11-0.19-0.11
			c-0.11,0-0.19,0.09-0.19,0.21c0,0.11,0.09,0.19,0.19,0.19h0.08c0.02,0.02,0.02,0.06,0.06,0.08c-0.04,0.02-0.07,0.05-0.09,0.09
			c-0.04-0.06-0.09-0.08-0.17-0.08c-0.11,0-0.21,0.09-0.21,0.21c0,0.13,0.09,0.22,0.23,0.22c0.02,0,0.04-0.02,0.08-0.02v0.02
			c0,0.06,0.02,0.11,0.06,0.13c-0.04,0.03-0.07,0.07-0.09,0.11c0-0.13-0.09-0.23-0.21-0.23c-0.13,0-0.22,0.11-0.22,0.23
			c0,0.11,0.09,0.21,0.22,0.21c0.08,0,0.15-0.04,0.19-0.11v0.02c0,0.17,0.13,0.28,0.28,0.28c0.15,0,0.26-0.13,0.26-0.28
			c0-0.06-0.02-0.09-0.04-0.13c0.06-0.02,0.09-0.04,0.13-0.06c0.06,0.08,0.15,0.15,0.26,0.15c0.15,0,0.26-0.13,0.26-0.28
			c0-0.02,0-0.02,0.02-0.07c0.05-0.02,0.09-0.05,0.11-0.09c0.05,0.07,0.12,0.11,0.21,0.11c0.11,0,0.21-0.09,0.21-0.21
			c-0.02-0.11-0.11-0.21-0.23-0.21c-0.02-0.02-0.02-0.06-0.04-0.07h0.06c0.05,0.04,0.11,0.06,0.17,0.06c0.16,0,0.28-0.13,0.28-0.28
			c0-0.04-0.02-0.08-0.04-0.11c0.05-0.02,0.1-0.06,0.13-0.11c0.05,0.08,0.13,0.13,0.23,0.13c0.11,0,0.21-0.09,0.21-0.23
			c0-0.12-0.1-0.22-0.23-0.23c-0.04,0-0.08,0.02-0.11,0.04c0-0.05-0.02-0.09-0.04-0.13l0.11-0.06c0.04,0.09,0.13,0.15,0.23,0.15
			c0.14,0,0.26-0.11,0.26-0.25c0,0,0-0.01,0-0.01c0-0.02-0.02-0.06-0.02-0.07c0.06-0.06,0.11-0.11,0.15-0.17
			c0,0.11,0.11,0.21,0.23,0.21c0.13-0.02,0.24-0.11,0.24-0.24c0-0.04-0.02-0.08-0.04-0.11c0.06-0.02,0.09-0.06,0.15-0.09
			c0.04,0.08,0.13,0.11,0.23,0.11c0.17,0,0.3-0.13,0.3-0.28h0.04c0.02,0.02,0.02,0.02,0.04,0.02c-0.04,0.04-0.06,0.09-0.06,0.15
			c0,0.11,0.09,0.21,0.21,0.21c0.11-0.02,0.19-0.09,0.19-0.21c0-0.05-0.01-0.09-0.04-0.13c0.02,0,0.02,0,0.04-0.02
			c2.09-0.15,2.37-0.15,2.37-0.15s0.23-0.02,1.79,0.02c1.19,0.04,1.41,0.07,1.41,0.07c0.17,0,1.13,0.15,1.19-0.25
			c0.06-0.36-0.25-0.41-0.38-0.45C28.36,23.89,28.17,23.78,27.98,23.65L27.98,23.65z M10.82,24.27c0.06-0.01,0.12-0.05,0.17-0.09
			c0,0.08,0.04,0.15,0.08,0.19c-0.06,0.02-0.19,0.1-0.19,0.1C10.88,24.4,10.88,24.31,10.82,24.27L10.82,24.27z M11.69,25.21
			c0-0.06-0.04-0.09-0.06-0.13l0.15-0.07c0,0.04,0.02,0.09,0.06,0.13C11.78,25.16,11.72,25.17,11.69,25.21z M12.1,22.07
			c0.04,0,0.06-0.02,0.08-0.04c0,0.04,0.02,0.06,0.04,0.07c-0.03,0-0.05,0.02-0.07,0.04C12.13,22.12,12.12,22.09,12.1,22.07z
			 M12.19,20.47c-0.03,0-0.07,0.01-0.09,0.04c0-0.04-0.02-0.08-0.06-0.09c0.03,0,0.07-0.01,0.09-0.04
			C12.14,20.42,12.16,20.45,12.19,20.47z M12.01,22.6c0-0.04-0.02-0.06-0.06-0.09c0.04,0,0.07,0,0.09-0.04
			c0,0.04,0.02,0.08,0.06,0.09C12.06,22.56,12.03,22.58,12.01,22.6z M12.04,21.07c-0.04,0-0.06,0.02-0.09,0.04
			c0-0.04-0.02-0.06-0.04-0.09c0.04,0,0.06,0,0.09-0.04C12.01,21.02,12.02,21.06,12.04,21.07z M11.4,20.85
			c0.06,0,0.11-0.02,0.15-0.06c0,0.04,0.02,0.09,0.08,0.13c-0.06,0-0.11,0.02-0.15,0.06C11.48,20.94,11.44,20.89,11.4,20.85z
			 M11.59,20.28c0.08,0,0.13-0.04,0.19-0.08c0,0.06,0.04,0.13,0.09,0.17c-0.07,0-0.13,0.04-0.19,0.08
			C11.68,20.38,11.65,20.32,11.59,20.28z M11.95,23.01c-0.04,0.02-0.08,0.04-0.09,0.06c0-0.02-0.02-0.08-0.06-0.1
			c0.06,0,0.07-0.02,0.11-0.06C11.91,22.96,11.93,22.99,11.95,23.01z M11.87,23.54c-0.06,0.01-0.12,0.05-0.17,0.09
			c-0.02-0.06-0.05-0.12-0.09-0.17c0.06-0.01,0.12-0.05,0.17-0.09C11.78,23.44,11.84,23.5,11.87,23.54z M11.7,24.03
			c-0.04,0.02-0.13,0.06-0.15,0.09c-0.02-0.06-0.05-0.12-0.09-0.17c0.08-0.02,0.11-0.02,0.17-0.07
			C11.63,23.93,11.67,23.99,11.7,24.03L11.7,24.03z M11.12,24.91c0.08,0,0.15-0.03,0.21-0.09c0,0.07,0.02,0.13,0.06,0.19
			c-0.07,0-0.13,0.03-0.17,0.09C11.22,25.02,11.18,24.95,11.12,24.91z M11.5,24.35c0.02,0.08,0.04,0.15,0.09,0.19
			c-0.06,0-0.15,0.06-0.19,0.07c-0.02-0.06-0.04-0.13-0.09-0.17C11.39,24.44,11.48,24.39,11.5,24.35z M11.42,25.52h0.02
			c0.06,0,0.13-0.02,0.17-0.08c0.02,0.06,0.05,0.12,0.09,0.17c-0.06,0-0.12,0.03-0.17,0.08C11.54,25.63,11.48,25.55,11.42,25.52z
			 M11.63,26.59c0.09,0,0.15-0.04,0.21-0.09c0,0.08,0.04,0.15,0.09,0.21c-0.07,0-0.14,0.04-0.19,0.09
			C11.74,26.79,11.72,26.64,11.63,26.59z M12.61,26.94c0.07,0,0.13-0.04,0.19-0.09c0,0.08,0.04,0.15,0.09,0.19
			c-0.08,0.02-0.15,0.04-0.21,0.11C12.68,27.13,12.7,27,12.61,26.94L12.61,26.94z M11.8,26.15c0.07-0.02,0.13-0.04,0.17-0.09
			c0,0.06,0.04,0.11,0.08,0.15c-0.06,0.02-0.13,0.06-0.17,0.11C11.87,26.26,11.84,26.2,11.8,26.15L11.8,26.15z M12.1,26.74
			c0.09,0,0.15-0.04,0.21-0.09c0,0.08,0.02,0.15,0.08,0.21c-0.07,0-0.13,0.04-0.17,0.09C12.21,26.86,12.17,26.78,12.1,26.74
			L12.1,26.74z M12.31,26.32c0.06-0.02,0.11-0.05,0.15-0.09c0,0.06,0.02,0.11,0.06,0.15c-0.06,0.02-0.11,0.04-0.15,0.09
			C12.36,26.42,12.34,26.37,12.31,26.32z M13.43,26.15c0.03,0,0.07-0.01,0.09-0.04c0,0.02,0.02,0.06,0.06,0.08
			c-0.04,0-0.08,0.02-0.09,0.06C13.49,26.21,13.47,26.17,13.43,26.15L13.43,26.15z M14.06,25.83c0.04,0,0.06-0.02,0.09-0.04
			c0,0.04,0.02,0.06,0.04,0.07c-0.04,0.02-0.06,0.02-0.09,0.06C14.09,25.89,14.09,25.85,14.06,25.83z M14.55,25.96
			c0.04,0,0.06-0.02,0.09-0.04c0,0.04,0.02,0.06,0.04,0.09c-0.03,0-0.07,0.01-0.09,0.04C14.58,26.03,14.57,25.99,14.55,25.96z
			 M14.7,25.5c0.04,0,0.06-0.02,0.08-0.04c0.02,0.04,0.04,0.08,0.06,0.1c-0.03,0-0.07,0.01-0.09,0.04
			C14.73,25.55,14.72,25.52,14.7,25.5L14.7,25.5z M15.15,25.65c0.03,0,0.07-0.01,0.09-0.04c0,0.04,0.02,0.06,0.06,0.09
			c-0.03,0-0.07,0.01-0.09,0.04C15.2,25.7,15.18,25.66,15.15,25.65z M15.32,25.21c0.04,0,0.06-0.02,0.07-0.04
			c0,0.04,0.02,0.06,0.06,0.08c-0.04,0-0.08,0.02-0.09,0.06C15.35,25.27,15.34,25.24,15.32,25.21L15.32,25.21z M15.64,25.8
			c0-0.02,0-0.02-0.02-0.04c0.04-0.02,0.07-0.02,0.11-0.06c0.02,0.05,0.06,0.1,0.11,0.13c-0.06,0-0.11,0.04-0.15,0.08L15.64,25.8z
			 M15.75,25.36c0.03,0,0.07-0.01,0.09-0.04c0,0.04,0.02,0.06,0.06,0.07c-0.04,0.02-0.08,0.02-0.09,0.06
			C15.81,25.42,15.79,25.38,15.75,25.36L15.75,25.36z M16.88,25.17c0.04,0,0.06-0.02,0.09-0.04c0,0.04,0.02,0.08,0.04,0.1
			c-0.04,0-0.07,0.01-0.1,0.04C16.92,25.24,16.9,25.2,16.88,25.17z M17.71,21.13c0-0.02,0.02-0.04,0.06-0.04
			c0.02,0,0.04,0.02,0.04,0.04c0,0.04-0.02,0.06-0.04,0.06C17.73,21.19,17.71,21.17,17.71,21.13z M18.52,26.72
			c0.03,0,0.07-0.01,0.09-0.04c0,0.04,0.02,0.06,0.04,0.07c-0.02,0-0.06,0.02-0.08,0.06C18.55,26.77,18.55,26.74,18.52,26.72
			L18.52,26.72z M18.8,20.91c0-0.04,0.02-0.06,0.06-0.06s0.08,0.02,0.08,0.06c0,0.04-0.04,0.07-0.08,0.07S18.8,20.94,18.8,20.91z
			 M19.14,21.09c0-0.06,0.06-0.11,0.11-0.11c0.06,0,0.11,0.06,0.11,0.11c0,0.06-0.06,0.11-0.11,0.11
			C19.19,21.2,19.14,21.15,19.14,21.09z M20.74,21.04c0-0.08,0.06-0.11,0.13-0.13c0.06,0,0.11,0.06,0.11,0.13
			c0,0.06-0.06,0.11-0.11,0.11C20.79,21.15,20.74,21.09,20.74,21.04z M21.1,21.73c0-0.06,0.04-0.11,0.09-0.11
			c0.06,0,0.11,0.06,0.11,0.11c0,0.04-0.06,0.09-0.11,0.09C21.13,21.83,21.1,21.79,21.1,21.73z M21.21,21.26
			c0-0.09,0.07-0.15,0.15-0.15c0.09-0.02,0.15,0.06,0.15,0.13c0,0.09-0.06,0.15-0.15,0.15C21.28,21.39,21.21,21.34,21.21,21.26
			L21.21,21.26z M21.53,21.88c0-0.06,0.04-0.09,0.07-0.09c0.06,0,0.09,0.04,0.09,0.09c0,0.06-0.04,0.09-0.09,0.09
			C21.56,21.98,21.53,21.94,21.53,21.88z M21.66,21.39c0-0.06,0.06-0.11,0.13-0.11c0.08-0.02,0.13,0.06,0.13,0.11
			c0,0.07-0.06,0.13-0.13,0.13c0,0-0.01,0-0.01,0C21.72,21.53,21.66,21.47,21.66,21.39C21.66,21.4,21.66,21.4,21.66,21.39z
			 M48.28,31.48c0-1.02,0.58-1.34,1.13-1.34c0.13,0,0.25,0.02,0.36,0.06V29c-0.08-0.02-0.13-0.04-0.21-0.04
			c-0.81,0-1.22,0.64-1.37,1.05h-0.02c0-0.32-0.04-0.66-0.06-0.98h-1.17C46.99,29.28,47,29.6,47,29.92v4.48h-2.71
			c0.25-0.06,0.5-0.14,0.73-0.24l-0.07-1.02c-0.23,0.17-0.6,0.42-1.41,0.42c-1,0-1.35-0.55-1.35-1.47h3.11v-0.26
			c0-2.18-1-2.86-2.15-2.86c-1.37,0-2.22,1.24-2.22,2.84c0,1.21,0.53,2.28,1.69,2.6h-3.16V31.1c0-1.32-0.37-2.15-1.54-2.15
			c-0.81,0-1.19,0.47-1.45,0.85c-0.15-0.28-0.45-0.85-1.36-0.85c-0.75,0-1.17,0.51-1.35,0.92h-0.02c0-0.28-0.04-0.56-0.06-0.85H32.4
			c0.02,0.21,0.04,0.49,0.04,0.88v4.48h-2.52c0.25-0.05,0.48-0.14,0.71-0.24l-0.06-1.02c-0.24,0.17-0.62,0.41-1.41,0.41
			c-1,0-1.37-0.55-1.37-1.47h3.12v-0.26c0-2.18-1-2.86-2.16-2.86c-1.35,0-2.2,1.24-2.2,2.84c0,1.21,0.51,2.28,1.68,2.6h-3.69v-2.92
			c0-1.02,0.58-1.34,1.11-1.34c0.13,0,0.26,0.02,0.38,0.06v-1.2c-0.07-0.02-0.15-0.04-0.23-0.04c-0.81,0-1.2,0.64-1.37,1.05h-0.02
			c0-0.32-0.02-0.66-0.04-0.98H23.2c0.04,0.24,0.04,0.56,0.04,0.88v4.48h-2.41v-4.4h0.98v-0.96h-0.98v-0.58
			c0-0.39,0.23-0.66,0.6-0.66c0.19,0,0.36,0.04,0.51,0.08L22,26.92c-0.24-0.04-0.58-0.11-0.92-0.11c-1.19,0-1.54,0.7-1.54,1.49v0.73
			h-0.9v0.96h0.9v4.4h-2.41v-6.92h-1.34v1.58h-5.15v-0.06c0-0.09-0.08-0.17-0.17-0.17c-0.09,0-0.17,0.08-0.17,0.17
			c0,0.02,0.02,0.04,0.02,0.06H8.94c0-0.02,0.02-0.04,0.02-0.06c0-0.06-0.06-0.11-0.11-0.09c-0.08,0-0.11,0.04-0.11,0.09v0.06H0.5
			v0.11h8.66v0.04c0,0.09,0.08,0.15,0.15,0.15c0.09,0,0.15-0.06,0.15-0.15v-0.04h6.32v5.36h38.8v-0.13h-6.3V31.48L48.28,31.48z
			 M44.05,31.25h-1.86c0-0.7,0.28-1.43,0.96-1.43C43.73,29.82,44.05,30.31,44.05,31.25z M29.67,31.25h-1.86
			c0-0.7,0.28-1.43,0.96-1.43C29.35,29.82,29.67,30.31,29.67,31.25z M33.74,34.4v-3.24c0-0.6,0.3-1.15,0.88-1.15
			c0.47,0,0.68,0.34,0.68,1.01v3.37H33.74h2.86v-3.24c0-0.6,0.3-1.15,0.88-1.15c0.47,0,0.68,0.34,0.68,1.01v3.37H33.74L33.74,34.4z"
			/>
	</g>
</g>
</svg>
