<?xml version="1.0" encoding="utf-8"?>
<!-- Generator: Adobe Illustrator 16.0.0, SVG Export Plug-In . SVG Version: 6.00 Build 0)  -->
<!DOCTYPE svg PUBLIC "-//W3C//DTD SVG 1.1//EN" "http://www.w3.org/Graphics/SVG/1.1/DTD/svg11.dtd">
<svg version="1.1" id="Calque_1" xmlns="http://www.w3.org/2000/svg" xmlns:xlink="http://www.w3.org/1999/xlink" x="0px" y="0px"
	 width="55px" height="55px" viewBox="0 0 55 55" style="enable-background:new 0 0 55 55;" xml:space="preserve">
<style type="text/css">
<![CDATA[
	.st0{fill:#80CC28;}
	.st1{fill:url(#SVGID_1_);}
	.st2{fill:#FFFFFE;}
	.st3{fill:#FFFFFF;}
	.st4{fill:#676C70;}
	.st5{fill:#45BFDC;}
]]>
</style>
<g>
	<g>
		<path class="st2" d="M23.28,34.76c-1.96,0-3.95,0.81-3.95,3.72v3.95h1.75v-3.92c0-1.97,1.27-2.42,2.19-2.42s2.19,0.45,2.19,2.42
			v3.92h1.75v-3.95C27.22,35.57,25.24,34.76,23.28,34.76z"/>
		<path class="st2" d="M10.89,38.7c0,1.85,0.81,3.73,3.72,3.73h3.57v-1.31h-3.11c-1.97,0-2.35-1.52-2.35-2.42s0.39-2.45,2.35-2.45
			h3.11v-1.29h-3.57C11.7,34.97,10.89,36.84,10.89,38.7z"/>
		<path class="st2" d="M30.14,39.3c0.5,0,5.9,0,6.1,0c0-0.21,0-0.55,0-0.55c0-3.32-2.18-3.99-4.16-3.99c-2.78,0-3.81,1.99-3.81,3.84
			v0.11c0,1.85,0.81,3.73,3.73,3.73h4.03v-1.31h-3.57C30.82,41.12,30.27,40.18,30.14,39.3 M34.37,38.17h-4.23
			c0-0.64,0.05-2.28,2.09-2.28C34.67,35.9,34.37,38.17,34.37,38.17z"/>
		<path class="st2" d="M41.71,38.12h-0.98c-0.92,0-1.5-0.29-1.5-0.95c0-0.64,0.45-0.9,1.39-0.91c0,0,3.66,0,3.87,0v-1.29
			c-0.22,0-3.86,0-3.86,0c-1.57,0-3.35,0.26-3.35,2.2c0,2.11,2.37,2.08,3.07,2.08h0.98c0.92,0,1.5,0.29,1.5,0.95
			c0,0.64-0.45,0.9-1.39,0.91c0,0-3.66,0-3.87,0v1.29c0.22,0,3.86,0,3.86,0c1.57,0,3.35-0.26,3.35-2.2
			C44.77,38.08,42.41,38.12,41.71,38.12z"/>
	</g>
	<g>
		<path class="st2" d="M3.24,48.82c0,0.26,0.1,0.34,0.27,0.34c0.16,0,0.27-0.07,0.27-0.34v-0.16h0.41v0.1c0,0.59-0.28,0.8-0.68,0.8
			s-0.68-0.21-0.68-0.8V47.9c0-0.59,0.28-0.8,0.68-0.8s0.68,0.21,0.68,0.8v0.01H3.77v-0.07c0-0.26-0.1-0.34-0.27-0.34
			c-0.16,0-0.27,0.07-0.27,0.34V48.82z"/>
		<path class="st2" d="M4.53,49.52v-2.38h1.12v0.4H4.94v0.55h0.54v0.4H4.94v0.63h0.74v0.4H4.53z"/>
		<path class="st2" d="M6.09,49.52v-2.38h0.45l0.57,1.41h0.01v-1.41h0.38v2.38H7.1l-0.63-1.54H6.46v1.54H6.09z"/>
		<path class="st2" d="M9.17,47.14v0.4H8.69v1.98H8.28v-1.98H7.8v-0.4H9.17z"/>
		<path class="st2" d="M10.43,49.52l-0.36-0.97h-0.2v0.97H9.46v-2.38h0.59c0.49,0,0.73,0.26,0.73,0.71c0,0.29-0.1,0.51-0.32,0.61
			l0.4,1.06H10.43z M9.87,48.18h0.21c0.18,0,0.29-0.1,0.29-0.33s-0.11-0.33-0.29-0.33H9.87V48.18z"/>
		<path class="st2" d="M11.16,49.52v-2.38h1.12v0.4h-0.71v0.55h0.54v0.4h-0.54v0.63h0.74v0.4H11.16z"/>
		<path class="st2" d="M13.61,49.52v-2.38h0.45l0.57,1.41h0.01v-1.41h0.38v2.38h-0.39l-0.63-1.54h-0.01v1.54H13.61z"/>
		<path class="st2" d="M15.31,49.52l0.53-2.38h0.53l0.52,2.38H16.5l-0.1-0.5h-0.57l-0.12,0.5H15.31z M15.9,48.62h0.41l-0.2-0.96
			H16.1L15.9,48.62z"/>
		<path class="st2" d="M18.24,47.14v0.4h-0.48v1.98h-0.41v-1.98h-0.48v-0.4H18.24z"/>
		<path class="st2" d="M18.52,49.52v-2.38h0.41v2.38H18.52z"/>
		<path class="st2" d="M19.34,47.9c0-0.59,0.28-0.8,0.68-0.8c0.4,0,0.68,0.21,0.68,0.8v0.85c0,0.59-0.28,0.8-0.68,0.8
			c-0.4,0-0.68-0.21-0.68-0.8V47.9z M19.75,48.82c0,0.26,0.1,0.34,0.27,0.34s0.27-0.07,0.27-0.34v-0.97c0-0.26-0.11-0.34-0.27-0.34
			s-0.27,0.07-0.27,0.34V48.82z"/>
		<path class="st2" d="M21.07,49.52v-2.38h0.45l0.57,1.41h0.01v-1.41h0.38v2.38h-0.39l-0.63-1.54h-0.01v1.54H21.07z"/>
		<path class="st2" d="M22.76,49.52l0.53-2.38h0.53l0.52,2.38h-0.39l-0.1-0.5h-0.57l-0.12,0.5H22.76z M23.35,48.62h0.41l-0.2-0.96
			h-0.01L23.35,48.62z"/>
		<path class="st2" d="M24.61,49.52v-2.38h0.41v1.98h0.66v0.4H24.61z"/>
		<path class="st2" d="M26.87,47.14h0.57c0.47,0,0.73,0.22,0.75,0.83v0.73c-0.02,0.6-0.28,0.83-0.75,0.83h-0.57V47.14z M27.28,49.12
			h0.14c0.23,0,0.36-0.12,0.36-0.48v-0.63c0-0.34-0.1-0.48-0.36-0.48h-0.14V49.12z"/>
		<path class="st2" d="M28.7,47.61h-0.18v-0.47h0.42v0.47l-0.19,0.49h-0.21L28.7,47.61z"/>
		<path class="st2" d="M29.3,49.52v-2.38h1.12v0.4h-0.71v0.55h0.54v0.4h-0.54v0.63h0.74v0.4H29.3z M30.35,46.52L29.91,47h-0.3
			l0.28-0.48H30.35z"/>
		<path class="st2" d="M32.09,47.14v0.4h-0.48v1.98H31.2v-1.98h-0.48v-0.4H32.09z"/>
		<path class="st2" d="M32.77,47.14v1.67c0,0.23,0.09,0.35,0.29,0.35s0.29-0.12,0.29-0.35v-1.67h0.41v1.67
			c0,0.53-0.28,0.75-0.7,0.75c-0.42,0-0.7-0.22-0.7-0.75v-1.67H32.77z"/>
		<path class="st2" d="M34.17,47.14h0.57c0.47,0,0.73,0.22,0.75,0.83v0.73c-0.02,0.6-0.28,0.83-0.75,0.83h-0.57V47.14z M34.58,49.12
			h0.14c0.22,0,0.36-0.12,0.36-0.48v-0.63c0-0.34-0.1-0.48-0.36-0.48h-0.14V49.12z"/>
		<path class="st2" d="M35.78,49.52v-2.38h1.12v0.4h-0.71v0.55h0.54v0.4h-0.54v0.63h0.74v0.4H35.78z"/>
		<path class="st2" d="M38.16,47.8c-0.07-0.22-0.16-0.32-0.3-0.32c-0.15,0-0.23,0.1-0.23,0.26c0,0.36,0.92,0.38,0.92,1.13
			c0,0.41-0.25,0.68-0.68,0.68c-0.33,0-0.59-0.2-0.7-0.67l0.4-0.1c0.05,0.29,0.2,0.39,0.32,0.39c0.14,0,0.25-0.11,0.25-0.28
			c0-0.45-0.92-0.46-0.92-1.12c0-0.41,0.22-0.67,0.65-0.67c0.37,0,0.59,0.24,0.66,0.58L38.16,47.8z"/>
		<path class="st2" d="M40.76,47.8c-0.07-0.22-0.16-0.32-0.3-0.32c-0.15,0-0.23,0.1-0.23,0.26c0,0.36,0.92,0.38,0.92,1.13
			c0,0.41-0.25,0.68-0.68,0.68c-0.33,0-0.59-0.2-0.7-0.67l0.41-0.1c0.05,0.29,0.2,0.39,0.32,0.39c0.14,0,0.25-0.11,0.25-0.28
			c0-0.45-0.92-0.46-0.92-1.12c0-0.41,0.22-0.67,0.65-0.67c0.37,0,0.59,0.24,0.66,0.58L40.76,47.8z"/>
		<path class="st2" d="M41.5,49.52v-2.38h0.59c0.51,0,0.75,0.26,0.75,0.71c0,0.45-0.25,0.71-0.75,0.71h-0.18v0.96H41.5z
			 M41.91,48.19h0.22c0.2,0,0.3-0.11,0.3-0.34c0-0.23-0.1-0.34-0.3-0.34h-0.22V48.19z"/>
		<path class="st2" d="M42.87,49.52l0.53-2.38h0.53l0.52,2.38h-0.39l-0.1-0.5h-0.57l-0.12,0.5H42.87z M43.46,48.62h0.41l-0.2-0.96
			h-0.01L43.46,48.62z"/>
		<path class="st2" d="M45.81,47.14v0.4h-0.48v1.98h-0.41v-1.98h-0.48v-0.4H45.81z"/>
		<path class="st2" d="M46.12,49.52v-2.38h0.41v2.38H46.12z"/>
		<path class="st2" d="M46.82,49.52l0.53-2.38h0.53l0.52,2.38H48l-0.1-0.5h-0.57l-0.12,0.5H46.82z M47.4,48.62h0.41l-0.2-0.96h-0.01
			L47.4,48.62z"/>
		<path class="st2" d="M48.66,49.52v-2.38h0.41v1.98h0.66v0.4H48.66z"/>
		<path class="st2" d="M50.03,49.52v-2.38h1.12v0.4h-0.71v0.55h0.54v0.4h-0.54v0.63h0.74v0.4H50.03z"/>
		<path class="st2" d="M52.42,47.8c-0.07-0.22-0.16-0.32-0.3-0.32c-0.15,0-0.23,0.1-0.23,0.26c0,0.36,0.92,0.38,0.92,1.13
			c0,0.41-0.25,0.68-0.68,0.68c-0.33,0-0.59-0.2-0.7-0.67l0.4-0.1c0.05,0.29,0.2,0.39,0.32,0.39c0.14,0,0.25-0.11,0.25-0.28
			c0-0.45-0.92-0.46-0.92-1.12c0-0.41,0.22-0.67,0.64-0.67c0.37,0,0.59,0.24,0.66,0.58L52.42,47.8z"/>
	</g>
	<g>
		<g>
			<path class="st2" d="M33.33,26.4c-2.97-0.04-6.27-2.61-6.27-6.82V5.61h-0.98v7.44c-4.27,0.93-7.46,4.47-7.46,8.71
				c0,4.94,4.32,8.94,9.66,8.94c4.06,0,7.52-2.33,8.96-5.62C36.32,25.88,34.75,26.42,33.33,26.4z"/>
		</g>
		<path class="st2" d="M28.34,12.82c0.41-0.05,5.36,0.02,8.25,4.39c0.97,1.48,0.02,3.32-2.91,3.42
			C32.64,20.66,28.9,19.71,28.34,12.82z"/>
	</g>
</g>
</svg>
