<?xml version="1.0" encoding="utf-8"?>
<!-- Generator: Adobe Illustrator 16.0.0, SVG Export Plug-In . SVG Version: 6.00 Build 0)  -->
<!DOCTYPE svg PUBLIC "-//W3C//DTD SVG 1.1//EN" "http://www.w3.org/Graphics/SVG/1.1/DTD/svg11.dtd">
<svg version="1.1" id="Calque_1" xmlns="http://www.w3.org/2000/svg" xmlns:xlink="http://www.w3.org/1999/xlink" x="0px" y="0px"
	 width="680px" height="680px" viewBox="0 0 680 680" style="enable-background:new 0 0 680 680;" xml:space="preserve">
<style type="text/css">
<![CDATA[
	.st0{fill:none;stroke:#FFFFFF;stroke-width:2;stroke-linecap:round;stroke-linejoin:round;stroke-miterlimit:10;}
	.st1{fill:url(#SVGID_1_);}
	.st2{fill:url(#SVGID_2_);}
	.st3{fill:#FFFFFF;}
	.st4{fill:none;}
	.st5{fill:none;stroke:#FFFFFF;stroke-width:0.25;}
	.st6{fill:none;stroke:#FFFFFF;stroke-width:0.75;stroke-linecap:round;stroke-linejoin:round;stroke-miterlimit:10;}
	.st7{fill:#0A0A46;}
]]>
</style>
<pattern  width="28.8" height="28.8" patternUnits="userSpaceOnUse" id="_x31_0_xA0__x25__10_ppp" viewBox="1 -29.8 28.8 28.8" style="overflow:visible;">
	<g>
		<polygon class="st4" points="1,-29.8 29.8,-29.8 29.8,-1 1,-1 		"/>
		<g>
			<path class="st3" d="M30.8-1c0,0.55-0.45,1-1,1s-1-0.45-1-1s0.45-1,1-1S30.8-1.55,30.8-1z"/>
		</g>
		<g>
			<path class="st3" d="M2-1c0,0.55-0.45,1-1,1S0-0.45,0-1s0.45-1,1-1S2-1.55,2-1z"/>
			<path class="st3" d="M16.4-1c0,0.55-0.45,1-1,1s-1-0.45-1-1s0.45-1,1-1S16.4-1.55,16.4-1z"/>
			<path class="st3" d="M30.8-1c0,0.55-0.45,1-1,1s-1-0.45-1-1s0.45-1,1-1S30.8-1.55,30.8-1z"/>
		</g>
		<g>
			<path class="st3" d="M2-1c0,0.55-0.45,1-1,1S0-0.45,0-1s0.45-1,1-1S2-1.55,2-1z"/>
		</g>
		<g>
			<path class="st3" d="M30.8-29.8c0,0.55-0.45,1-1,1s-1-0.45-1-1s0.45-1,1-1S30.8-30.35,30.8-29.8z"/>
			<path class="st3" d="M30.8-15.4c0,0.55-0.45,1-1,1s-1-0.45-1-1s0.45-1,1-1S30.8-15.95,30.8-15.4z"/>
			<path class="st3" d="M30.8-1c0,0.55-0.45,1-1,1s-1-0.45-1-1s0.45-1,1-1S30.8-1.55,30.8-1z"/>
		</g>
		<g>
			<path class="st3" d="M16.4-15.4c0,0.55-0.45,1-1,1s-1-0.45-1-1s0.45-1,1-1S16.4-15.95,16.4-15.4z"/>
			<path class="st3" d="M2-29.8c0,0.55-0.45,1-1,1s-1-0.45-1-1s0.45-1,1-1S2-30.35,2-29.8z"/>
			<path class="st3" d="M2-15.4c0,0.55-0.45,1-1,1s-1-0.45-1-1s0.45-1,1-1S2-15.95,2-15.4z"/>
			<path class="st3" d="M2-1c0,0.55-0.45,1-1,1S0-0.45,0-1s0.45-1,1-1S2-1.55,2-1z"/>
			<path class="st3" d="M16.4-29.8c0,0.55-0.45,1-1,1s-1-0.45-1-1s0.45-1,1-1S16.4-30.35,16.4-29.8z"/>
			<path class="st3" d="M16.4-1c0,0.55-0.45,1-1,1s-1-0.45-1-1s0.45-1,1-1S16.4-1.55,16.4-1z"/>
			<path class="st3" d="M30.8-15.4c0,0.55-0.45,1-1,1s-1-0.45-1-1s0.45-1,1-1S30.8-15.95,30.8-15.4z"/>
			<path class="st3" d="M30.8-29.8c0,0.55-0.45,1-1,1s-1-0.45-1-1s0.45-1,1-1S30.8-30.35,30.8-29.8z"/>
			<path class="st3" d="M30.8-1c0,0.55-0.45,1-1,1s-1-0.45-1-1s0.45-1,1-1S30.8-1.55,30.8-1z"/>
		</g>
		<g>
			<path class="st3" d="M2-15.4c0,0.55-0.45,1-1,1s-1-0.45-1-1s0.45-1,1-1S2-15.95,2-15.4z"/>
			<path class="st3" d="M2-29.8c0,0.55-0.45,1-1,1s-1-0.45-1-1s0.45-1,1-1S2-30.35,2-29.8z"/>
			<path class="st3" d="M2-1c0,0.55-0.45,1-1,1S0-0.45,0-1s0.45-1,1-1S2-1.55,2-1z"/>
		</g>
		<g>
			<path class="st3" d="M30.8-29.8c0,0.55-0.45,1-1,1s-1-0.45-1-1s0.45-1,1-1S30.8-30.35,30.8-29.8z"/>
		</g>
		<g>
			<path class="st3" d="M2-29.8c0,0.55-0.45,1-1,1s-1-0.45-1-1s0.45-1,1-1S2-30.35,2-29.8z"/>
			<path class="st3" d="M16.4-29.8c0,0.55-0.45,1-1,1s-1-0.45-1-1s0.45-1,1-1S16.4-30.35,16.4-29.8z"/>
			<path class="st3" d="M30.8-29.8c0,0.55-0.45,1-1,1s-1-0.45-1-1s0.45-1,1-1S30.8-30.35,30.8-29.8z"/>
		</g>
		<g>
			<path class="st3" d="M2-29.8c0,0.55-0.45,1-1,1s-1-0.45-1-1s0.45-1,1-1S2-30.35,2-29.8z"/>
		</g>
	</g>
</pattern>
<pattern  width="28.8" height="28.8" patternUnits="userSpaceOnUse" id="Grille_1_xA0_cm_lignes" viewBox="1 -29.87 28.8 28.8" style="overflow:visible;">
	<g id="social">
		<polygon class="st4" points="1,-29.87 29.8,-29.87 29.8,-1.07 1,-1.07 		"/>
		<g>
			<line class="st5" x1="29.8" y1="-2.07" x2="29.8" y2="-0.07"/>
			<line class="st5" x1="30.8" y1="-1.07" x2="28.8" y2="-1.07"/>
		</g>
		<g>
			<line class="st5" x1="29.8" y1="-2.07" x2="29.8" y2="-0.07"/>
			<line class="st5" x1="30.8" y1="-1.07" x2="28.8" y2="-1.07"/>
			<line class="st5" x1="1" y1="-2.07" x2="1" y2="-0.07"/>
			<line class="st5" x1="2" y1="-1.07" x2="0" y2="-1.07"/>
			<line class="st5" x1="15.4" y1="-2.07" x2="15.4" y2="-0.07"/>
			<line class="st5" x1="16.4" y1="-1.07" x2="14.4" y2="-1.07"/>
		</g>
		<g>
			<line class="st5" x1="1" y1="-2.07" x2="1" y2="-0.07"/>
			<line class="st5" x1="2" y1="-1.07" x2="0" y2="-1.07"/>
		</g>
		<g>
			<line class="st5" x1="29.8" y1="-16.97" x2="29.8" y2="-14.97"/>
			<line class="st5" x1="30.8" y1="-15.97" x2="28.8" y2="-15.97"/>
			<line class="st5" x1="29.8" y1="-2.07" x2="29.8" y2="-0.07"/>
			<line class="st5" x1="30.8" y1="-1.07" x2="28.8" y2="-1.07"/>
			<line class="st5" x1="29.8" y1="-30.87" x2="29.8" y2="-28.87"/>
			<line class="st5" x1="30.8" y1="-29.87" x2="28.8" y2="-29.87"/>
		</g>
		<g>
			<line class="st5" x1="15.4" y1="-16.97" x2="15.4" y2="-14.97"/>
			<line class="st5" x1="16.4" y1="-15.97" x2="14.4" y2="-15.97"/>
			<line class="st5" x1="29.8" y1="-16.97" x2="29.8" y2="-14.97"/>
			<line class="st5" x1="30.8" y1="-15.97" x2="28.8" y2="-15.97"/>
			<line class="st5" x1="1" y1="-16.97" x2="1" y2="-14.97"/>
			<line class="st5" x1="2" y1="-15.97" x2="0" y2="-15.97"/>
			<line class="st5" x1="29.8" y1="-30.87" x2="29.8" y2="-28.87"/>
			<line class="st5" x1="30.8" y1="-29.87" x2="28.8" y2="-29.87"/>
			<line class="st5" x1="29.87" y1="-2" x2="29.87" y2="0"/>
			<line class="st5" x1="30.87" y1="-1" x2="28.87" y2="-1"/>
			<line class="st5" x1="1" y1="-2.07" x2="1" y2="-0.07"/>
			<line class="st5" x1="2" y1="-1.07" x2="0" y2="-1.07"/>
			<line class="st5" x1="1" y1="-30.87" x2="1" y2="-28.87"/>
			<line class="st5" x1="2" y1="-29.87" x2="0" y2="-29.87"/>
			<line class="st5" x1="15.4" y1="-30.87" x2="15.4" y2="-28.87"/>
			<line class="st5" x1="16.4" y1="-29.87" x2="14.4" y2="-29.87"/>
			<line class="st5" x1="15.4" y1="-2.07" x2="15.4" y2="-0.07"/>
			<line class="st5" x1="16.4" y1="-1.07" x2="14.4" y2="-1.07"/>
		</g>
		<g>
			<line class="st5" x1="1" y1="-16.97" x2="1" y2="-14.97"/>
			<line class="st5" x1="2" y1="-15.97" x2="0" y2="-15.97"/>
			<line class="st5" x1="1" y1="-30.87" x2="1" y2="-28.87"/>
			<line class="st5" x1="2" y1="-29.87" x2="0" y2="-29.87"/>
			<line class="st5" x1="1.07" y1="-2" x2="1.07" y2="0"/>
			<line class="st5" x1="2.07" y1="-1" x2="0.07" y2="-1"/>
		</g>
		<g>
			<line class="st5" x1="29.8" y1="-30.87" x2="29.8" y2="-28.87"/>
			<line class="st5" x1="30.8" y1="-29.87" x2="28.8" y2="-29.87"/>
		</g>
		<g>
			<line class="st5" x1="29.87" y1="-30.8" x2="29.87" y2="-28.8"/>
			<line class="st5" x1="30.87" y1="-29.8" x2="28.87" y2="-29.8"/>
			<line class="st5" x1="1" y1="-30.87" x2="1" y2="-28.87"/>
			<line class="st5" x1="2" y1="-29.87" x2="0" y2="-29.87"/>
			<line class="st5" x1="15.4" y1="-30.87" x2="15.4" y2="-28.87"/>
			<line class="st5" x1="16.4" y1="-29.87" x2="14.4" y2="-29.87"/>
		</g>
		<g>
			<line class="st5" x1="1.07" y1="-30.8" x2="1.07" y2="-28.8"/>
			<line class="st5" x1="2.07" y1="-29.8" x2="0.07" y2="-29.8"/>
		</g>
	</g>
</pattern>
<g>
	<path class="st4" d="M424.6,514.5L180.64,270.54c-4.08,6.95-7.71,14.21-10.84,21.72l233.08,233.07
		C410.39,522.21,417.65,518.58,424.6,514.5z"/>
	<path class="st4" d="M456.41,490.7L204.43,238.74c-5.86,6.25-11.28,12.93-16.21,19.97l248.21,248.2
		C443.48,501.98,450.15,496.56,456.41,490.7z"/>
	<path class="st4" d="M481.72,461.17L233.96,213.42c-7.59,5.19-14.75,10.95-21.43,17.22L464.5,482.61
		C470.77,475.92,476.53,468.76,481.72,461.17z"/>
	<path class="st4" d="M167.86,424.2c18.07,47.35,55.73,85.02,103.08,103.08L167.86,424.2z"/>
	<path class="st4" d="M386.19,531.31L163.82,308.95c-2.38,7.85-4.23,15.93-5.51,24.19L362,536.82
		C370.26,535.54,378.34,533.69,386.19,531.31z"/>
	<path class="st4" d="M500.97,424.45L270.68,194.16c-10.09,3.87-19.75,8.62-28.86,14.17L486.8,453.31
		C492.36,444.2,497.11,434.54,500.97,424.45z"/>
	<path class="st4" d="M334.46,538.94c1.24,0,2.47-0.02,3.7-0.05L156.24,356.97c-0.03,1.23-0.05,2.46-0.05,3.7
		c0,8.28,0.58,16.42,1.67,24.4l152.21,152.21C318.05,538.37,326.19,538.94,334.46,538.94z"/>
	<path class="st4" d="M512.74,360.67c0-12.75-1.35-25.19-3.9-37.18l-137.2-137.19c-11.99-2.54-24.43-3.89-37.18-3.89
		c-3.97,0-7.92,0.14-11.83,0.4l189.7,189.69C512.59,368.58,512.74,364.64,512.74,360.67z"/>
	<path class="st4" d="M511.53,381.39l-197.8-197.79c-12.4,1.44-24.42,4.14-35.91,7.99l225.72,225.71
		C507.39,405.81,510.09,393.8,511.53,381.39z"/>
	<path class="st4" d="M380.14,188.31l126.68,126.67C490.5,253.25,441.88,204.64,380.14,188.31z"/>
	<path class="st4" d="M238.14,349.49l107.5,107.5c3.49-0.4,6.92-0.98,10.29-1.74L239.88,339.2
		C239.12,342.57,238.54,346,238.14,349.49z"/>
	<path class="st4" d="M431.43,360.67c0-0.33-0.01-0.66-0.01-0.99l-95.96-95.96c-0.33,0-0.66-0.01-1-0.01
		c-9.32,0-18.32,1.32-26.85,3.77l120.05,120.05C430.12,378.99,431.43,369.99,431.43,360.67z"/>
	<path class="st4" d="M289.17,274.92c-5.2,2.75-10.12,5.96-14.7,9.57l135.66,135.65l-16.19,16.19L258.28,300.67
		c-2.68,3.4-5.13,6.98-7.35,10.73l132.8,132.8c15.42-9.11,28.09-22.36,36.49-38.23L289.17,274.92z"/>
	<path class="st4" d="M357.67,266.5l70.96,70.96C420.06,302.55,392.58,275.08,357.67,266.5z"/>
	<path class="st4" d="M290.4,447.07l-42.33-42.33C257.36,422.92,272.22,437.78,290.4,447.07z"/>
	<g>
		<pattern  id="SVGID_1_" xlink:href="#Grille_1_xA0_cm_lignes" patternTransform="matrix(1.4091 0 0 1.4091 3579.6499 3139.5215)">
		</pattern>
		<path class="st1" d="M421.95,197.79c68.34-33.82,77.28-176.51-99.79-176.51c-37.09,0-77.14,15.64-91.89,44.7
			c-21.74,42.83-47.77,197.79-169.53,261.82C17.06,350.78,16.67,400.46,21.37,431c12.4,80.61,79.96,127.05,160.11,127.05
			c42.31,0,109.52-9.97,135.52-39.36l0,0v0C392,469.92,346.97,234.9,421.95,197.79z"/>
		
			<pattern  id="SVGID_2_" xlink:href="#_x31_0_xA0__x25__10_ppp" patternTransform="matrix(0.6974 -1.1251 1.1251 0.6974 6184.7676 -11248.125)">
		</pattern>
		<path class="st2" d="M604.51,327.43c72.05,87.7-1.5,229.66-115.04,285.39c-113.54,55.72-296.31,29.9-296.13-83.6
			c0.29-179.87,147.64-122.8,199.02-131.44C459.12,386.54,518.74,223.04,604.51,327.43z"/>
	</g>
	<g>
		<path class="st7" d="M370.7,609.99l203.73-203.72c-2.49,18.19-7.03,35.73-13.38,52.38L423.08,596.61
			C406.43,602.96,388.89,607.5,370.7,609.99z"/>
		<path class="st7" d="M99.98,389.43l253.9-253.9c4,0.26,7.98,0.62,11.92,1.08L101.06,401.35
			C100.6,397.4,100.24,393.43,99.98,389.43z"/>
		<path class="st7" d="M107.36,312.47l169.55-169.55c3.76-0.99,7.55-1.9,11.37-2.71L104.66,323.84
			C105.47,320.02,106.37,316.22,107.36,312.47z"/>
		<g>
			<path class="st7" d="M201.57,569.34l332.22-332.2c3.59,5.14,6.98,10.42,10.16,15.84L217.41,579.5
				C211.99,576.32,206.71,572.93,201.57,569.34z"/>
			<path class="st7" d="M464.65,344.88L309.32,500.2c-13.29-3-25.81-8.05-37.21-14.79l177.74-177.75
				C456.59,319.07,461.64,331.58,464.65,344.88z"/>
		</g>
		<g>
			<path class="st7" d="M164,536.82l337.26-337.25c3.72,3.5,7.34,7.11,10.83,10.83L174.84,547.65
				C171.11,544.16,167.5,540.54,164,536.82z"/>
			<path class="st7" d="M236.78,453.21l181.57-181.57c8.05,6.34,15.32,13.62,21.67,21.67L258.45,474.88L236.78,453.21z"/>
		</g>
		<g>
			<path class="st7" d="M111.74,449.42l302.12-302.11c3.22,1.08,6.4,2.23,9.56,3.44L115.18,458.98
				C113.97,455.82,112.82,452.64,111.74,449.42z"/>
			<path class="st7" d="M212.01,342.55l94.97-94.97c9.54-2.34,19.49-3.63,29.73-3.73L208.28,372.28
				C208.38,362.04,209.67,352.09,212.01,342.55z"/>
		</g>
		<g>
			<path class="st7" d="M134.15,497.61l327.9-327.89c3.57,2.18,7.08,4.45,10.52,6.81L140.96,508.13
				C138.6,504.69,136.33,501.18,134.15,497.61z"/>
			<path class="st7" d="M213.31,409.55l160.68-160.68c8.63,2.48,16.9,5.84,24.69,9.97L223.27,434.24
				C219.15,426.45,215.79,418.18,213.31,409.55z"/>
		</g>
		<path class="st7" d="M301.2,609.39l272.63-272.62c1.62,10.42,2.55,21.07,2.77,31.89l-243.5,243.5
			C322.27,611.94,311.63,611,301.2,609.39z"/>
		<g>
			<path class="st7" d="M246.48,594.01l311.97-311.95c3.02,7.27,5.69,14.72,8,22.33L268.82,602.01
				C261.21,599.7,253.76,597.03,246.48,594.01z"/>
			<path class="st7" d="M467.84,373.61c0,21.24-5.1,41.29-14.15,58.98l-56.66,56.66c-17.7,9.04-37.74,14.15-58.98,14.15
				c-5.06,0-10.05-0.3-14.96-0.86l143.89-143.89C467.54,363.56,467.84,368.55,467.84,373.61z"/>
		</g>
	</g>
	<g>
		<g>
			<g>
				<path class="st0" d="M276.31,313.91c0,0,4.95-10.29,12.16-3.93c7.21,6.36-3.12,17.64-3.12,17.64c-0.17-4-9.54-14.26-9.54-14.26
					s-24.57-21.16-35.68-31.75c-11.11-10.6-29.81-48.22-29.81-48.22"/>
				<path class="st0" d="M289.89,311.13l40.69,26.02c0,0,5.32-1.29,5.88-0.94c0.55,0.35,4,3.51,4,3.51l-4.4,6.87"/>
				<path class="st0" d="M340.75,340.69c0,0,3.88,0.92,3.45,2.21c-0.43,1.28-0.08,5.59-0.08,5.59s4.01,3.15,4.25,5.82
					s-1.46,11.7-1.46,11.7s15.38,10.61,15.56,24.92c0.18,14.31-9.47,34.57-29.58,40.18c-20.11,5.61-32.17-7.74-32.17-7.74
					s-8.43,8.02-13.08,5.25c-4.64-2.77-20.45-14.83-20.94-14.36c-0.49,0.46-21.47,24.76-48.22,41.67
					c-26.75,16.91-32.48,23.74-38.07,16.67c-5.59-7.07-14.62-18.48-6.8-22.81c7.82-4.33,13.79-12.76,19.4-19.09
					c5.6-6.33,24.92-24.69,42.16-30.97l3.1-4.24c0,0-7.36-4.9-9.02-5.96c-1.66-1.06-6.56-5.55-2.71-13.4c0,0-46.2-27.03-92.56-28.1"
					/>
				<path class="st0" d="M332.57,364.42c0,0-5.79,37.94-41.66,49.95"/>
				
					<ellipse transform="matrix(0.8425 0.5387 -0.5387 0.8425 173.7557 -40.2626)" class="st0" cx="155.73" cy="277" rx="32.75" ry="90.18"/>
				
					<ellipse transform="matrix(0.8425 0.5387 -0.5387 0.8425 172.7399 -39.3761)" class="st0" cx="153.71" cy="275.71" rx="25.98" ry="78.16"/>
				
					<ellipse transform="matrix(0.8424 0.5388 -0.5388 0.8424 173.7919 -40.2606)" class="st0" cx="155.73" cy="277" rx="3.71" ry="12.66"/>
				
					<ellipse transform="matrix(0.8425 0.5387 -0.5387 0.8425 174.978 -41.3304)" class="st0" cx="158.17" cy="278.56" rx="6.6" ry="19.22"/>
				<line class="st0" x1="169.21" y1="262.81" x2="184.91" y2="273.11"/>
				<path class="st0" d="M148.5,295.19c0,0,8.86,10.17,13.9,13.08"/>
				<path class="st0" d="M341.08,381.52c0,0-4.16,22.61-29.62,37.82"/>
			</g>
			<g>
				<path class="st6" d="M204.25,265.06c0,0,6.35-14.79,6.65-20.43c0,0,7.81,16.66,15.45,26.3"/>
				<path class="st6" d="M230.41,275.38c0,0,6.75,9.66,18.1,18.96c11.35,9.3,33.02,28.31,34.08,35.01"/>
				<path class="st6" d="M184.46,299.65c-15.9,27.45-39.93,45.12-39.93,45.12s16.91-0.46,40.88,9.03"/>
				<path class="st6" d="M153.11,341.9c0,0,14.72,0.18,32.36,8.93"/>
				<path class="st6" d="M284.26,310.5c0,0,6.85,3.52,1.96,10.86"/>
				<path class="st6" d="M279.67,313.8l5.18,5.98c0,0,3.18-4.2,0.1-5.87"/>
				<line class="st6" x1="281.01" y1="312.48" x2="284.37" y2="316.51"/>
				<path class="st6" d="M286.84,331.05c10.82-10.89,6.93-13.47,6.93-13.47s31.12,19.7,32.86,21.01c1.74,1.31,7.64,0.73,8.15,0.86
					c0.51,0.13,2.32,0.4-0.59,4.17"/>
				<path class="st6" d="M332.5,341.94c0,0-4.18,4.37,1.42,7.99c5.6,3.62,6.45-5.9,6.45-5.9s0.71,4.77,1.24,5.8s5.18,2.72,4.11,8.27
					s-1.43,7.19-1.43,7.19"/>
				<path class="st6" d="M292.51,328.84c0,0,3.67-3.58,3.45-6.79c0,0,26.54,17.27,29.7,18.99s4.5,0.7,4.5,0.7s-3.45,3.23-0.17,6.92"
					/>
				<path class="st6" d="M325.93,344.18c0,0-7.94,9.94,3.15,17.04c0,0-2.24,19.44-16.31,33.09"/>
				<path class="st6" d="M333.39,352.31c0,0-5.2-0.22-6.81-5.13c0,0-4.06,8.33,6.06,14.18"/>
				<path class="st6" d="M339.21,351.08c0,0,5.92,2.67,3.49,11.57"/>
				<path class="st6" d="M328.87,353.81c0,0,3.84,3.87,8.98,0.58c0,0,3.56,2.55,2.21,8.22"/>
				<path class="st6" d="M336.32,358.56c0,0,1.81,15.27-13.37,36.22"/>
				<path class="st6" d="M339.63,365.29c0,0,29.12,15.26,13.51,44.15"/>
				<path class="st6" d="M338.47,368.19c0,0,23.95,12.97,12.21,38.29"/>
				<path class="st6" d="M304.47,421.35c0,0,18.87,15.82,43.37-3.63"/>
				<path class="st6" d="M337.02,400.62c0,0-10.48,18.72-23.76,22c0,0,11.57,4.33,25.71-2.16"/>
				<path class="st6" d="M349.24,413.37c0,0-12.62,6.58-28.23,8.27c0,0,5-1.94,10.67-8.8"/>
				<path class="st6" d="M329.12,390.23c0,0,7.33-11.93,8.54-17.38c0,0,11.91,7.36,12.42,18"/>
				<path class="st6" d="M339.73,395.92c2.67-4.03,4.61-12.32,4.61-12.32s7.44,11.72,4.29,20.98"/>
				<path class="st6" d="M332.07,416.64c0,0,6.8-1.22,15.2-6.99"/>
				<path class="st6" d="M334.99,409.51c6.19-6.47,9.89-18.1,9.89-18.1s5.83,15.11-8.59,21.02"/>
				<path class="st6" d="M337.12,381.89c0,0-6.61,22.09-29.71,34.86"/>
				<path class="st6" d="M272.38,412.6c0,0,14.58,11.54,15.93,11.74c1.35,0.2,6.76-0.98,11.46-4.31"/>
				<path class="st6" d="M322.78,399.23c0,0-15.14,15.94-33.65,20.92"/>
				<path class="st6" d="M211.6,255.59c0,0-13.82,47.84-51.19,81.22"/>
				<path class="st6" d="M175.06,453.59c0,0-0.6,4.66,2.71,9.45s4.89,12.77,18.04,3.82c13.14-8.95,25.76-16.62,29.72-19.57"/>
				<path class="st6" d="M192.94,434.68c0,0,16.92-16.67,31.76-25.86"/>
				<path class="st6" d="M187.61,467.84c0,0,32.04-20.17,38.06-24.48s37.33-40.97,40.17-39.15c2.84,1.82,18.38,12.79,18.38,12.79"/>
				<path class="st6" d="M178.33,454.04c0,0,27.37-28.64,38.4-35.69c11.03-7.04,20.62-13.91,26.6-24.66c0,0-17.23-7.8-13.44-14.48"
					/>
				<path class="st6" d="M180.56,456.81c0,0,3.96,7.73,5.01,8.4c1.05,0.67,25.52-16.47,32.45-20.35"/>
				<path class="st6" d="M265.11,409.51c0,0-25.39,26.11-34.26,33.17"/>
				<path class="st6" d="M188.44,293.9c0,0,9.03-15.74,13.13-22.62"/>
				<path class="st6" d="M215.03,262.23c0,0,14.92,24.53,34.35,37.99c19.43,13.46,31.79,34.44,31.79,34.44"/>
				<path class="st6" d="M324.91,362.63c0,0-11.16,36.02-40.22,48.74"/>
				<path class="st6" d="M193.44,355.93c0,0,28.85,12.66,40.6,20.5c0,0-3.73,5.06,9.71,13.66"/>
				<path class="st6" d="M298.32,327.18c0,0-6.05,10.86-15.4,15.26c0,0-18.56-25.94-26.61-31.71c-8.06-5.77-39.04-30.26-43.95-44.33
					c0,0-18.48,50.65-45.33,70.89"/>
				<path class="st6" d="M320.41,342.52c0,0-7.04,10.77,0.29,17.42c0,0-6.5,21.15-19.57,32.85"/>
				<path class="st6" d="M287.52,345.23c0,0,8.93-6.08,13.93-14.12l14.53,9.77c0,0-9.02,12.78-0.33,20.85"/>
				<path class="st6" d="M206.58,232.35c0,0-14.79,57.18-55.86,96.26"/>
				<path class="st6" d="M102.43,334.44c0,0-0.58,23.37,22.79,14.57"/>
				<path class="st6" d="M166.08,265.06c0,0,0.1,18.63-16.5,25.8"/>
				<path class="st6" d="M173.05,268.55c0,0,0.88,15.33-18.01,28.17c0,0,3.28,3.6,6.56,5.98"/>
				<path class="st6" d="M179.71,274.37c0,0-5.93,14.61-15.83,24.75"/>
				<path class="st6" d="M175.19,270.88c0,0,2.21,11.5-14.99,25.88"/>
				<path class="st6" d="M179.66,207.86c0,0,11.34-6.84,18.77-2.09"/>
				<path class="st6" d="M115.88,336.37c0,0,13.78-16.91,28.43-14.76"/>
				<path class="st6" d="M173.72,339.43c0,0,51.06,21.07,65.64,34.55c0,0-3.4,6.33,9.21,14.3"/>
				<path class="st6" d="M267.53,329.93c0,0,13.31,15.46,17.65,21.36c0,0,9.74-5.34,16.73-14.72"/>
				<path class="st6" d="M184.69,453.37c0,0,21.87-24,36.95-33.35c15.08-9.35,31.64-33.39,31.64-33.39"/>
				<path class="st6" d="M202.3,450.58c0,0-9.75,7.22-13.58,7.93c-3.82,0.72,22.27-25.85,32.23-32.77"/>
				<path class="st6" d="M223.9,439.07c0,0,33.91-37.1,41.64-40.45c0,0,13.84,9.06,14.55,9.81c0.71,0.75,6.3-2.4,16.34-10.23"/>
				<path class="st6" d="M206.9,445.71c0,0,15.67-11.05,25.82-21.67c10.15-10.62,31.12-28.55,31.12-28.55"/>
				<path class="st6" d="M256.89,387.48c-7.59,11.57-30.23,35.06-30.23,35.06s18.08-16.68,28.64-25.06"/>
				<path class="st6" d="M213.47,278.89c0,0-12.88,32.67-35.31,55.22c0,0,38.22,17.27,61.21,33.75"/>
				<path class="st6" d="M218.26,283.58c0,0,27.18,25.83,33.22,29.84c6.04,4.01,9.95,10.66,9.95,10.66"/>
				<path class="st6" d="M309.21,342.87c0,0-10.03,12.29,2.52,23.45"/>
				<path class="st6" d="M288.49,354.16c0,0,8.7-3.63,16.92-14.85c0,0-14.95,19.81,4.07,33.31c0,0-9.75,18.74-27.49,30"/>
				<path class="st6" d="M260.19,392.15c0,0,6.83-5.57,9.68,4.11l7.97,5.4"/>
				<path class="st6" d="M246.58,366.33c0,0-5.79,10.41,4.77,17.61"/>
				<path class="st6" d="M187.21,332.13c0,0,15.16-15.24,27.81-43.49"/>
				<path class="st6" d="M296.43,354.04c0,0-4.12,11.09,5.66,19.68c0,0-9.89,15.46-21.71,22.58"/>
				<path class="st6" d="M251.49,319.67c0,0,22.87,26.19,36.4,41.45c0,0,1.79-0.71,4.48-3.29c0,0-4.62,8.62,3.54,16.51"/>
				<path class="st6" d="M241.83,311.57c0,0-14.61-13.82-21.33-18.85c0,0-11.25,27.68-28.39,42.54"/>
				<path class="st6" d="M222.26,301.57c0,0,39.86,34.19,62.85,63.9"/>
				<path class="st6" d="M287.52,367.98c0,0,0.12,6.54,4.23,11.03c0,0-7.24,10.24-16.56,15.76c0,0-6.73-12.68-13.99-9.46
					c0,0-14.9-6.2-11.25-17.96"/>
				<path class="st6" d="M219.27,308.56c0,0-10.28,21.17-22.32,29.8c0,0,19.7,7.01,45.2,25.14"/>
				<path class="st6" d="M225,310.86c0,0,39.12,34.54,57.4,58.84c0,0-1.07,3.77,3.7,9.19c0,0-2.57,4.51-8.95,9.37"/>
				<path class="st6" d="M206.9,336.74c0,0,12.1-13.81,14.93-20.9c0,0,42.99,39.16,55.23,54.58"/>
				<path class="st6" d="M273.93,385.5c0,0-7.5-8.92-11.58-5.33c0,0-12.91-4.52-3.35-22.76c0,0,16.28,15.3,20.65,22.86"/>
				<path class="st6" d="M223.67,322.8c0,0-11.09,14.96-12.77,15.77c0,0,29.59,16.89,40.78,26.07c0,0-1.75-5.38,4.5-11.62"/>
				<path class="st6" d="M226.78,326.3c0,0,16.89,15.24,25.35,23.94c0,0-6.25,3.92-3.94,8.7"/>
				<path class="st6" d="M217.99,338.01c0,0,7.05-6.91,7.29-7.51s20.35,18.3,20.35,18.3"/>
				<path class="st6" d="M221.41,340.2c0,0,17.72,9.72,22.25,14.23c0,0-7.63-12.74-17.18-18.84c-2-1.28,1.73,5.65,1.73,5.65"/>
				<path class="st6" d="M261.17,364.39c0,0,11.7,10.94,15.05,17.54c0,0-11.29-12.27-14.24-6.73c0,0-2.67-2.55-0.76-6.7"/>
				<path class="st6" d="M155.32,242.83c0,0-20.4,18.46-34.31,55.21"/>
				<path class="st6" d="M189.24,217.7c0,0-17.19,26.19-6.72,44.16"/>
				<path class="st6" d="M185.29,236.14c0,0-5.21,14.78,1.04,24.75"/>
			</g>
		</g>
		<g>
			<g>
				<path class="st0" d="M378.48,268.12c0,0-2.98-6.2-7.33-2.37c-4.34,3.83,1.88,10.63,1.88,10.63c0.1-2.41,5.75-8.6,5.75-8.6
					s14.81-12.75,21.5-19.14c6.69-6.39,17.97-29.06,17.97-29.06"/>
				<path class="st0" d="M370.3,266.45l-24.52,15.68c0,0-3.21-0.78-3.54-0.57c-0.33,0.21-2.41,2.11-2.41,2.11l2.65,4.14"/>
				<path class="st0" d="M339.64,284.26c0,0-2.34,0.56-2.08,1.33c0.26,0.77,0.05,3.37,0.05,3.37s-2.42,1.9-2.56,3.51
					s0.88,7.05,0.88,7.05s-9.27,6.39-9.38,15.02c-0.11,8.62,5.71,20.83,17.83,24.21c12.12,3.38,19.39-4.67,19.39-4.67
					s5.08,4.83,7.88,3.16c2.8-1.67,12.33-8.94,12.62-8.66c0.29,0.28,12.94,14.92,29.06,25.11s19.58,14.31,22.94,10.05
					c3.37-4.26,8.81-11.14,4.1-13.75c-4.71-2.61-8.31-7.69-11.69-11.5s-15.02-14.88-25.41-18.67l-1.87-2.55c0,0,4.44-2.96,5.44-3.59
					s3.95-3.35,1.63-8.07c0,0,27.84-16.29,55.78-16.93"/>
				<path class="st0" d="M344.57,298.56c0,0,3.49,22.86,25.11,30.1"/>
				
					<ellipse transform="matrix(-0.8425 0.5387 -0.5387 -0.8425 963.6941 209.9866)" class="st0" cx="451.15" cy="245.88" rx="19.74" ry="54.35"/>
				
					<ellipse transform="matrix(-0.8425 0.5387 -0.5387 -0.8425 965.5198 207.8858)" class="st0" cx="452.37" cy="245.1" rx="15.66" ry="47.1"/>
				
					<ellipse transform="matrix(-0.8425 0.5388 -0.5388 -0.8425 963.6923 209.961)" class="st0" cx="451.15" cy="245.88" rx="2.24" ry="7.63"/>
				
					<ellipse transform="matrix(-0.8425 0.5387 -0.5387 -0.8425 961.494 212.5243)" class="st0" cx="449.68" cy="246.82" rx="3.98" ry="11.58"/>
				<line class="st0" x1="443.02" y1="237.33" x2="433.56" y2="243.53"/>
				<path class="st0" d="M455.5,256.84c0,0-5.34,6.13-8.38,7.88"/>
				<path class="st0" d="M339.44,308.87c0,0,2.51,13.63,17.85,22.79"/>
			</g>
			<g>
				<path class="st6" d="M421.91,238.68c0,0-3.83-8.92-4.01-12.31c0,0-4.71,10.04-9.31,15.85"/>
				<path class="st6" d="M406.14,244.9c0,0-4.07,5.82-10.91,11.43c-6.84,5.61-19.9,17.06-20.54,21.1"/>
				<path class="st6" d="M433.83,259.53c9.58,16.54,24.07,27.19,24.07,27.19s-10.19-0.28-24.64,5.44"/>
				<path class="st6" d="M452.73,284.99c0,0-8.87,0.11-19.5,5.38"/>
				<path class="st6" d="M373.69,266.07c0,0-4.13,2.12-1.18,6.55"/>
				<path class="st6" d="M376.45,268.06l-3.12,3.6c0,0-1.92-2.53-0.06-3.54"/>
				<line class="st6" x1="375.64" y1="267.26" x2="373.62" y2="269.69"/>
				<path class="st6" d="M372.13,278.45c-6.52-6.56-4.18-8.12-4.18-8.12s-18.76,11.87-19.8,12.66s-4.61,0.44-4.91,0.52
					c-0.31,0.08-1.4,0.24,0.36,2.51"/>
				<path class="st6" d="M344.61,285.02c0,0,2.52,2.64-0.85,4.82c-3.38,2.18-3.89-3.56-3.89-3.56s-0.43,2.87-0.75,3.5
					s-3.12,1.64-2.48,4.98c0.65,3.34,0.86,4.33,0.86,4.33"/>
				<path class="st6" d="M368.71,277.12c0,0-2.21-2.16-2.08-4.09c0,0-16,10.41-17.9,11.44c-1.9,1.04-2.71,0.42-2.71,0.42
					s2.08,1.95,0.1,4.17"/>
				<path class="st6" d="M348.57,286.37c0,0,4.79,5.99-1.9,10.27c0,0,1.35,11.71,9.83,19.94"/>
				<path class="st6" d="M344.08,291.26c0,0,3.13-0.13,4.1-3.09c0,0,2.45,5.02-3.65,8.54"/>
				<path class="st6" d="M340.57,290.53c0,0-3.57,1.61-2.11,6.97"/>
				<path class="st6" d="M346.8,292.17c0,0-2.31,2.33-5.41,0.35c0,0-2.15,1.54-1.33,4.95"/>
				<path class="st6" d="M342.31,295.03c0,0-1.09,9.2,8.06,21.83"/>
				<path class="st6" d="M340.32,299.09c0,0-17.55,9.19-8.14,26.61"/>
				<path class="st6" d="M341.02,300.84c0,0-14.44,7.81-7.36,23.08"/>
				<path class="st6" d="M361.5,332.88c0,0-11.37,9.53-26.14-2.19"/>
				<path class="st6" d="M341.89,320.38c0,0,6.32,11.28,14.32,13.26c0,0-6.97,2.61-15.5-1.3"/>
				<path class="st6" d="M334.52,328.07c0,0,7.6,3.97,17.02,4.98c0,0-3.01-1.17-6.43-5.31"/>
				<path class="st6" d="M346.65,314.12c0,0-4.42-7.19-5.15-10.48c0,0-7.18,4.44-7.49,10.85"/>
				<path class="st6" d="M340.26,317.55c-1.61-2.43-2.78-7.42-2.78-7.42s-4.49,7.06-2.59,12.64"/>
				<path class="st6" d="M344.87,330.04c0,0-4.1-0.74-9.16-4.22"/>
				<path class="st6" d="M343.11,325.74c-3.73-3.9-5.96-10.91-5.96-10.91s-3.51,9.11,5.18,12.67"/>
				<path class="st6" d="M341.83,309.09c0,0,3.98,13.31,17.91,21.01"/>
				<path class="st6" d="M380.84,327.6c0,0-8.79,6.95-9.6,7.08c-0.82,0.12-4.07-0.59-6.91-2.6"/>
				<path class="st6" d="M350.47,319.54c0,0,9.12,9.61,20.28,12.61"/>
				<path class="st6" d="M417.47,232.97c0,0,8.33,28.83,30.85,48.95"/>
				<path class="st6" d="M439.5,352.3c0,0,0.36,2.81-1.63,5.7c-2,2.89-2.95,7.7-10.87,2.3s-15.52-10.01-17.91-11.79"/>
				<path class="st6" d="M428.72,340.91c0,0-10.2-10.05-19.14-15.58"/>
				<path class="st6" d="M431.94,360.89c0,0-19.31-12.16-22.94-14.75c-3.63-2.6-22.5-24.69-24.21-23.6
					c-1.71,1.1-11.08,7.71-11.08,7.71"/>
				<path class="st6" d="M437.53,352.58c0,0-16.49-17.26-23.14-21.51c-6.65-4.24-12.42-8.38-16.03-14.86c0,0,10.38-4.7,8.1-8.72"/>
				<path class="st6" d="M436.18,354.25c0,0-2.39,4.66-3.02,5.06c-0.63,0.41-15.38-9.93-19.56-12.26"/>
				<path class="st6" d="M385.23,325.74c0,0,15.3,15.74,20.65,19.99"/>
				<path class="st6" d="M431.43,256.06c0,0-5.44-9.49-7.91-13.63"/>
				<path class="st6" d="M415.41,236.98c0,0-8.99,14.78-20.7,22.9c-11.71,8.11-19.16,20.76-19.16,20.76"/>
				<path class="st6" d="M349.19,297.49c0,0,6.73,21.71,24.24,29.38"/>
				<path class="st6" d="M428.42,293.45c0,0-17.39,7.63-24.47,12.36c0,0,2.25,3.05-5.85,8.23"/>
				<path class="st6" d="M365.21,276.12c0,0,3.65,6.54,9.28,9.2c0,0,11.18-15.63,16.04-19.11c4.85-3.48,23.53-18.23,26.49-26.71
					c0,0,11.14,30.53,27.32,42.73"/>
				<path class="st6" d="M351.9,285.37c0,0,4.24,6.49-0.17,10.5c0,0,3.92,12.75,11.79,19.8"/>
				<path class="st6" d="M371.72,287c0,0-5.38-3.66-8.39-8.51l-8.75,5.89c0,0,5.44,7.7,0.2,12.57"/>
				<path class="st6" d="M420.5,218.97c0,0,8.92,34.46,33.67,58.02"/>
				<path class="st6" d="M483.27,280.5c0,0,0.35,14.08-13.73,8.78"/>
				<path class="st6" d="M444.91,238.68c0,0-0.06,11.23,9.94,15.55"/>
				<path class="st6" d="M440.71,240.78c0,0-0.53,9.24,10.86,16.98c0,0-1.98,2.17-3.96,3.6"/>
				<path class="st6" d="M436.69,244.29c0,0,3.57,8.8,9.54,14.92"/>
				<path class="st6" d="M439.42,242.19c0,0-1.33,6.93,9.03,15.6"/>
				<path class="st6" d="M436.73,204.21c0,0-6.84-4.12-11.31-1.26"/>
				<path class="st6" d="M475.16,281.66c0,0-8.3-10.19-17.13-8.9"/>
				<path class="st6" d="M440.31,283.5c0,0-30.77,12.7-39.56,20.82c0,0,2.05,3.82-5.55,8.62"/>
				<path class="st6" d="M383.77,277.77c0,0-8.02,9.32-10.64,12.88c0,0-5.87-3.22-10.09-8.87"/>
				<path class="st6" d="M433.69,352.17c0,0-13.18-14.46-22.27-20.1c-9.09-5.63-19.07-20.12-19.07-20.12"/>
				<path class="st6" d="M423.08,350.49c0,0,5.88,4.35,8.18,4.78s-13.42-15.58-19.42-19.75"/>
				<path class="st6" d="M410.06,343.55c0,0-20.44-22.36-25.1-24.38c0,0-8.34,5.46-8.77,5.91c-0.43,0.45-3.8-1.45-9.85-6.16"/>
				<path class="st6" d="M420.31,347.55c0,0-9.45-6.66-15.56-13.06c-6.12-6.4-18.75-17.21-18.75-17.21"/>
				<path class="st6" d="M390.18,312.46c4.58,6.97,18.22,21.13,18.22,21.13s-10.9-10.05-17.26-15.1"/>
				<path class="st6" d="M416.35,247.02c0,0,7.76,19.69,21.28,33.28c0,0-23.03,10.41-36.89,20.34"/>
				<path class="st6" d="M413.46,249.85c0,0-16.38,15.57-20.02,17.99c-3.64,2.42-6,6.43-6,6.43"/>
				<path class="st6" d="M358.65,285.58c0,0,6.04,7.41-1.52,14.13"/>
				<path class="st6" d="M371.14,292.38c0,0-5.25-2.19-10.19-8.95c0,0,9.01,11.94-2.45,20.08c0,0,5.88,11.29,16.57,18.08"/>
				<path class="st6" d="M388.19,315.27c0,0-4.12-3.36-5.83,2.48l-4.81,3.25"/>
				<path class="st6" d="M396.39,299.72c0,0,3.49,6.27-2.87,10.61"/>
				<path class="st6" d="M432.17,279.1c0,0-9.13-9.18-16.76-26.21"/>
				<path class="st6" d="M366.35,292.31c0,0,2.49,6.68-3.41,11.86c0,0,5.96,9.32,13.08,13.61"/>
				<path class="st6" d="M393.44,271.59c0,0-13.78,15.79-21.94,24.98c0,0-1.08-0.43-2.7-1.98c0,0,2.78,5.19-2.13,9.95"/>
				<path class="st6" d="M399.25,266.71c0,0,8.8-8.33,12.86-11.36c0,0,6.78,16.68,17.11,25.64"/>
				<path class="st6" d="M411.05,260.69c0,0-24.02,20.61-37.88,38.51"/>
				<path class="st6" d="M371.72,300.71c0,0-0.07,3.94-2.55,6.64c0,0,4.37,6.17,9.98,9.5c0,0,4.06-7.64,8.43-5.7
					c0,0,8.98-3.74,6.78-10.82"/>
				<path class="st6" d="M412.85,264.9c0,0,6.19,12.76,13.45,17.96c0,0-11.87,4.22-27.24,15.15"/>
				<path class="st6" d="M409.4,266.29c0,0-23.58,20.82-34.6,35.46c0,0,0.64,2.27-2.23,5.54c0,0,1.55,2.72,5.39,5.65"/>
				<path class="st6" d="M420.31,281.88c0,0-7.29-8.32-9-12.6c0,0-25.91,23.6-33.29,32.89"/>
				<path class="st6" d="M379.91,311.27c0,0,4.52-5.38,6.98-3.21c0,0,7.78-2.72,2.02-13.72c0,0-9.81,9.22-12.44,13.78"/>
				<path class="st6" d="M410.2,273.48c0,0,6.68,9.02,7.7,9.5c0,0-17.83,10.18-24.57,15.71c0,0,1.05-3.24-2.71-7"/>
				<path class="st6" d="M408.33,275.59c0,0-10.18,9.19-15.28,14.43c0,0,3.77,2.36,2.37,5.24"/>
				<path class="st6" d="M413.63,282.65c0,0-4.25-4.17-4.39-4.53c-0.14-0.36-12.26,11.03-12.26,11.03"/>
				<path class="st6" d="M411.57,283.96c0,0-10.68,5.86-13.41,8.58c0,0,4.6-7.68,10.35-11.36c1.21-0.77-1.04,3.41-1.04,3.41"/>
				<path class="st6" d="M387.6,298.54c0,0-7.05,6.59-9.07,10.57c0,0,6.81-7.39,8.58-4.06c0,0,1.61-1.54,0.46-4.04"/>
				<path class="st6" d="M451.4,225.28c0,0,12.29,11.12,20.68,33.28"/>
				<path class="st6" d="M430.95,210.14c0,0,10.36,15.78,4.05,26.61"/>
				<path class="st6" d="M433.33,221.25c0,0,3.14,8.91-0.63,14.92"/>
			</g>
		</g>
	</g>
</g>
</svg>
